<svg width="620" height="453" viewBox="0 0 620 453" fill="none" xmlns="http://www.w3.org/2000/svg">
<rect x="423.335" y="344.088" width="196.248" height="9.81239" rx="4.9062" fill="url(#paint0_linear_10_553)"/>
<rect x="423.336" y="355.862" width="196.248" height="9.81239" rx="4.9062" fill="url(#paint1_linear_10_553)"/>
<rect x="423.336" y="367.637" width="196.248" height="9.81239" rx="4.9062" fill="url(#paint2_linear_10_553)"/>
<path d="M189.515 106.628H310.534L285.676 195.267L189.515 206.715V106.628Z" fill="#DFA684"/>
<path d="M126.512 126.014C127.874 121.434 131.333 117.775 135.829 116.157L190.496 96.4885L228.438 85.0407L250.845 79.4389C253.311 78.8225 255.893 78.8414 258.349 79.4938L275.537 84.0595L315.114 97.4698L356.398 117.159C357.221 117.551 358.005 118.018 358.743 118.552L363.724 122.158C365.857 123.703 367.12 126.177 367.12 128.81C367.12 130.946 366.288 132.997 364.8 134.53L360.754 138.699C357.923 141.615 354.033 143.261 349.969 143.261H337.682H315.114L293.854 136.065L274.216 129.864C270.844 128.799 267.205 128.957 263.938 130.311L211.139 152.185C204.772 154.822 201.015 161.451 202.023 168.267L205.869 194.285L187.88 207.696L150.92 280.307L126.447 337.873L117.558 327.08L158.77 377.123L200.309 345.069L234.381 300.913L259.183 257.739L265.071 239.422L272.43 232.717L345.205 167.138L350.766 171.39L362.921 182.656C363.707 183.384 364.085 184.452 363.934 185.512L363.404 189.223C363.053 191.681 362.049 194 360.498 195.939L359.937 196.64C357.655 199.493 354.199 201.154 350.545 201.154C348.752 201.154 346.982 200.753 345.364 199.981L333.43 194.285L324.926 188.398L353.847 218.563C354.764 219.52 355.061 220.913 354.612 222.161L354.002 223.854C352.957 226.757 351.095 229.296 348.641 231.166C346.599 232.723 344.182 233.77 341.652 234.21C339.272 234.624 336.802 234.507 334.476 233.859L330.009 232.614C322.256 230.453 315.425 225.809 310.563 219.395L310.208 218.925L302.358 207.696L323.748 238.295C325.132 240.276 325.685 242.72 325.288 245.103C325.05 246.529 324.481 247.88 323.626 249.046L323.537 249.167C322.114 251.107 320.03 252.461 317.679 252.972L316.513 253.225C314.728 253.613 312.882 253.621 311.094 253.249L308.248 252.656C306.723 252.338 305.228 251.888 303.782 251.309L303.655 251.258C299.785 249.71 296.307 247.325 293.468 244.274L284.695 234.843L278.481 227.32L266.379 238.114L259.183 257.739L232.69 303.857L200.309 345.069L158.77 377.123L78.9623 285.868L126.512 126.014Z" fill="#F3B693"/>
<rect x="300.353" width="284.559" height="174.661" fill="#00DAE6"/>
<rect x="303.136" y="2.78321" width="278.993" height="169.094" stroke="black" stroke-opacity="0.37" stroke-width="5.56642"/>
<path d="M138.511 296.273C141.946 290.447 144.68 284.235 146.654 277.766L151.354 262.37C152.561 258.416 154.053 254.553 155.818 250.814L162.418 236.827C165.398 230.513 169.138 224.587 173.555 219.179L178.135 213.573C183.269 207.288 189.27 201.764 195.958 197.166L206.808 189.706L288.251 144.896L310.816 129.04C311.905 128.275 313.081 127.643 314.32 127.157L327.079 122.153C328.445 121.618 329.874 121.265 331.332 121.103L334.524 120.748C336.795 120.496 339.094 120.712 341.279 121.384L341.692 121.512C344.81 122.471 347.578 124.322 349.656 126.837L350.189 127.482C351.831 129.47 352.991 131.812 353.577 134.323L354.332 137.559C354.758 139.385 354.874 141.269 354.674 143.133L354.165 147.879C354.052 148.941 353.836 149.989 353.522 151.011L351.827 156.52C351.528 157.491 351.141 158.433 350.671 159.333L348.138 164.189C347.682 165.063 347.149 165.895 346.547 166.675L342.812 171.508C342.2 172.3 341.518 173.035 340.774 173.705L295.774 214.237L286.832 222.367C273.759 234.251 263.413 248.822 256.503 265.081L255.87 266.57L245.077 287.503L229.377 311.38L219.328 325.196C215.567 330.369 211.405 335.239 206.883 339.761L195.033 351.611L177.698 366.329L159.055 378.758L117.843 331.332L138.511 296.273Z" fill="#FFC89F"/>
<path d="M311.906 133.362C312.707 132.767 313.552 132.231 314.433 131.761L320.856 128.336C322.228 127.604 323.682 127.034 325.186 126.638L327.099 126.135C328.451 125.779 329.844 125.599 331.243 125.599H332.436C334.559 125.599 336.643 126.166 338.472 127.242C340.284 128.308 341.781 129.835 342.812 131.667L342.962 131.935C343.768 133.367 344.296 134.939 344.518 136.567L344.887 139.27C345.07 140.616 345.074 141.981 344.898 143.329C344.435 146.878 342.746 150.155 340.123 152.59L332.477 159.69C331.133 160.938 329.576 161.935 327.879 162.634C322.617 164.801 316.588 163.877 312.216 160.233L309.512 157.98L302.688 150.632C301.589 149.448 300.84 147.983 300.523 146.399L300.469 146.131C300.392 145.745 300.353 145.352 300.353 144.958C300.353 143.067 301.248 141.288 302.765 140.159L311.906 133.362Z" fill="#FFDFC8"/>
<rect x="67.1261" y="273.405" width="159.691" height="95.2416" rx="3.8965" transform="rotate(44.1818 67.1261 273.405)" fill="#2B439A"/>
<path d="M364.509 88.5193C364.509 92.7963 363.052 96.2556 360.137 98.8972C357.244 101.518 353.46 102.828 348.784 102.828H330.167V57.4484H360.326V65.2791H339.664V74.4934H348.47C353.229 74.4934 357.087 75.7828 360.043 78.3615C363.02 80.9403 364.509 84.3262 364.509 88.5193ZM339.664 95.2492H346.426C349.088 95.2492 351.143 94.6727 352.59 93.5196C354.057 92.3665 354.791 90.6997 354.791 88.5193C354.791 86.3389 354.057 84.6616 352.59 83.4876C351.143 82.3135 349.078 81.7265 346.394 81.7265H339.664V95.2492ZM385.642 75.1852C383.65 75.1852 381.983 75.8666 380.642 77.2294C379.321 78.5921 378.576 80.3323 378.409 82.4498H392.718C392.613 80.2903 391.911 78.5397 390.611 77.1979C389.332 75.8561 387.675 75.1852 385.642 75.1852ZM392.843 92.5132H401.272C400.768 95.8258 399.112 98.4989 396.303 100.533C393.514 102.545 390.045 103.552 385.893 103.552C380.715 103.552 376.648 102 373.691 98.8972C370.756 95.7943 369.289 91.5383 369.289 86.1292C369.289 80.7411 370.756 76.4432 373.691 73.2355C376.627 70.0068 380.579 68.3924 385.547 68.3924C390.432 68.3924 394.322 69.9229 397.215 72.9839C400.108 76.0448 401.555 80.1436 401.555 85.2801V88.079H378.314V88.6451C378.314 91.0561 379.017 93.0164 380.421 94.5259C381.847 96.0145 383.723 96.7587 386.051 96.7587C387.728 96.7587 389.175 96.3814 390.391 95.6266C391.607 94.8509 392.424 93.8131 392.843 92.5132ZM418.034 86.6639C417.887 89.2845 417.583 91.5698 417.122 93.5196C416.66 95.4484 415.989 97.1676 415.109 98.6771C414.228 100.187 413.054 101.329 411.587 102.105C410.14 102.86 408.4 103.237 406.366 103.237C405.15 103.237 404.175 103.09 403.442 102.797V95.0605C404.029 95.2073 404.689 95.2807 405.423 95.2807C406.911 95.2807 407.981 94.484 408.63 92.8906C409.301 91.2972 409.721 89.0225 409.888 86.0663L410.832 69.1157H436.399V102.828H427.248V76.0343H418.694L418.034 86.6639ZM475.112 102.828V69.1157H484.263V102.828H475.112ZM457.249 85.6261H452.186V95.9725H457.249C458.906 95.9725 460.227 95.5008 461.212 94.5574C462.218 93.5929 462.721 92.335 462.721 90.7836C462.721 89.2321 462.218 87.9847 461.212 87.0412C460.227 86.0978 458.906 85.6261 457.249 85.6261ZM443.035 102.828V69.1157H452.186V78.8647H458.759C462.742 78.8647 465.908 79.9444 468.256 82.1039C470.625 84.2633 471.81 87.1775 471.81 90.8465C471.81 94.5154 470.625 97.4296 468.256 99.5891C465.908 101.749 462.742 102.828 458.759 102.828H443.035ZM499.83 102.828H490.836V69.1157H499.83V90.1861H500.082L513.479 69.1157H522.473V102.828H513.479V81.5063H513.227L499.83 102.828ZM495.868 53.8633H501.466C501.508 55.5615 502.021 56.9558 503.007 58.046C503.992 59.1152 505.302 59.6498 506.938 59.6498C508.552 59.6498 509.852 59.1152 510.837 58.046C511.823 56.9558 512.336 55.5615 512.378 53.8633H518.007C518.007 56.9662 516.991 59.4716 514.957 61.3795C512.923 63.2664 510.25 64.2098 506.938 64.2098C503.625 64.2098 500.952 63.2664 498.918 61.3795C496.885 59.4716 495.868 56.9662 495.868 53.8633Z" fill="white"/>
<defs>
<linearGradient id="paint0_linear_10_553" x1="521.459" y1="344.088" x2="521.459" y2="353.9" gradientUnits="userSpaceOnUse">
<stop stop-color="#FF0A0A"/>
<stop offset="1" stop-color="#9D3131"/>
</linearGradient>
<linearGradient id="paint1_linear_10_553" x1="521.46" y1="355.862" x2="521.46" y2="365.675" gradientUnits="userSpaceOnUse">
<stop stop-color="#FFE600"/>
<stop offset="1" stop-color="#B4A630"/>
</linearGradient>
<linearGradient id="paint2_linear_10_553" x1="521.46" y1="367.637" x2="521.46" y2="377.45" gradientUnits="userSpaceOnUse">
<stop stop-color="#00FF19"/>
<stop offset="1" stop-color="#3EA748"/>
</linearGradient>
</defs>
</svg>
