<svg width="425" height="626" viewBox="0 0 425 626" fill="none" xmlns="http://www.w3.org/2000/svg">
<rect y="100.294" width="94.0259" height="94.0259" rx="13.7167" fill="#339E00"/>
<rect x="100.294" y="100.294" width="94.0259" height="94.0259" rx="13.7167" fill="#001AFF"/>
<rect x="200.589" y="100.294" width="94.0259" height="94.0259" rx="13.7167" fill="#4C0070"/>
<rect width="94.0259" height="94.0259" rx="13.7167" fill="#FF0202"/>
<rect x="100.294" y="-0.00012207" width="94.0259" height="94.0259" rx="13.7167" fill="#FF9110"/>
<rect x="200.589" y="-0.00012207" width="94.0259" height="94.0259" rx="13.7167" fill="#24FF00"/>
<rect x="200.589" y="200.589" width="94.0259" height="94.0259" rx="13.7167" fill="#00F0FF"/>
<rect x="100.294" y="200.589" width="94.0259" height="94.0259" rx="13.7167" fill="#FFBDBD"/>
<rect y="200.589" width="94.0259" height="94.0259" rx="13.7167" fill="#B10BFF"/>
<rect x="200.589" y="300.883" width="94.0259" height="94.0259" rx="13.7167" fill="#FF4F4F"/>
<rect x="300.883" y="100.294" width="94.0259" height="94.0259" rx="13.7167" fill="#FC295C"/>
<rect x="300.883" y="-0.00012207" width="94.0259" height="94.0259" rx="13.7167" fill="#FAFF00"/>
<rect x="300.883" y="200.589" width="94.0259" height="94.0259" rx="13.7167" fill="#FFDA7A"/>
<rect x="300.883" y="300.883" width="94.0259" height="94.0259" rx="13.7167" fill="#A7FF91"/>
<rect x="100.294" y="300.883" width="94.0259" height="94.0259" rx="13.7167" fill="#D9DD00"/>
<rect y="300.883" width="94.0259" height="94.0259" rx="13.7167" fill="#FF00C7"/>
<path d="M41.6785 53.4025V27.3711H41.5445L33.3288 33.0418V26.9693L41.6561 21.187H48.3537V53.4025H41.6785Z" fill="black"/>
<path d="M140.281 154.411C136.382 154.411 133.226 153.541 130.815 151.799C128.419 150.043 127.221 147.766 127.221 144.968C127.221 142.854 127.92 141.046 129.32 139.543C130.719 138.024 132.542 137.079 134.789 136.707V136.573C132.914 136.142 131.396 135.264 130.235 133.939C129.089 132.599 128.516 131.044 128.516 129.273C128.516 126.802 129.617 124.771 131.82 123.178C134.023 121.571 136.843 120.767 140.281 120.767C143.734 120.767 146.555 121.571 148.743 123.178C150.93 124.771 152.024 126.81 152.024 129.295C152.024 131.037 151.451 132.577 150.305 133.917C149.159 135.241 147.649 136.127 145.773 136.573V136.707C148.036 137.094 149.859 138.047 151.243 139.565C152.642 141.068 153.342 142.876 153.342 144.99C153.342 147.788 152.129 150.058 149.703 151.799C147.291 153.541 144.151 154.411 140.281 154.411ZM135.928 148.093C137.059 149.031 138.51 149.5 140.281 149.5C142.052 149.5 143.496 149.031 144.612 148.093C145.729 147.141 146.287 145.935 146.287 144.476C146.287 143.018 145.729 141.82 144.612 140.882C143.496 139.93 142.052 139.453 140.281 139.453C138.51 139.453 137.059 139.93 135.928 140.882C134.812 141.82 134.253 143.018 134.253 144.476C134.253 145.935 134.812 147.141 135.928 148.093ZM136.62 133.291C137.572 134.125 138.793 134.542 140.281 134.542C141.77 134.542 142.99 134.125 143.943 133.291C144.895 132.443 145.371 131.379 145.371 130.099C145.371 128.804 144.895 127.74 143.943 126.906C142.99 126.058 141.77 125.634 140.281 125.634C138.793 125.634 137.572 126.058 136.62 126.906C135.667 127.74 135.191 128.804 135.191 130.099C135.191 131.394 135.667 132.458 136.62 133.291Z" fill="black"/>
<path d="M213.943 153.697L227.807 126.973V126.839H211.42V121.481H234.46V126.906L221.02 153.697H213.943ZM251.338 153.697V147.959H235.308V142.222C237.927 137.221 242.236 130.307 248.234 121.481H257.745V142.556H261.942V147.959H257.745V153.697H251.338ZM241.224 142.579V142.757H251.472V126.259H251.338C248.852 129.891 246.858 132.919 245.354 135.345C243.851 137.757 242.474 140.168 241.224 142.579Z" fill="black"/>
<path d="M343.178 154.411C340.097 154.411 337.455 153.585 335.252 151.933C333.05 150.266 331.725 148.115 331.278 145.481H337.931C338.259 146.568 338.906 147.438 339.874 148.093C340.856 148.748 341.995 149.075 343.29 149.075C345.537 149.075 347.278 148.056 348.514 146.017C349.764 143.978 350.344 141.128 350.255 137.466H350.188H350.143H350.121C349.526 139.074 348.469 140.354 346.951 141.306C345.433 142.259 343.632 142.735 341.548 142.735C338.497 142.735 335.952 141.73 333.913 139.721C331.874 137.697 330.854 135.159 330.854 132.108C330.854 128.804 332.023 126.088 334.359 123.959C336.696 121.816 339.665 120.745 343.267 120.745C345.604 120.745 347.695 121.251 349.541 122.263C351.401 123.275 352.889 124.733 354.006 126.638C355.807 129.407 356.707 132.964 356.707 137.31C356.707 142.653 355.509 146.843 353.113 149.879C350.731 152.901 347.42 154.411 343.178 154.411ZM339.115 136.037C340.231 137.124 341.63 137.667 343.312 137.667C344.994 137.667 346.393 137.124 347.509 136.037C348.64 134.936 349.206 133.574 349.206 131.952C349.206 130.315 348.64 128.938 347.509 127.822C346.378 126.691 344.994 126.125 343.356 126.125C341.704 126.125 340.305 126.683 339.159 127.799C338.013 128.916 337.44 130.285 337.44 131.907C337.44 133.559 337.998 134.936 339.115 136.037Z" fill="black"/>
<path d="M128.102 54.1393C125.78 54.1393 123.696 53.6332 121.851 52.6211C120.02 51.5942 118.539 50.1207 117.408 48.2007C115.607 45.4472 114.706 41.8975 114.706 37.5515C114.706 32.2381 115.912 28.0632 118.323 25.027C120.734 21.9758 124.031 20.4503 128.213 20.4503C131.279 20.4503 133.906 21.2763 136.094 22.9284C138.282 24.5804 139.599 26.7237 140.046 29.3581H133.415C133.088 28.2865 132.448 27.4232 131.495 26.7683C130.543 26.1135 129.434 25.786 128.169 25.786C125.906 25.786 124.143 26.813 122.877 28.8669C121.627 30.9209 121.039 33.7562 121.114 37.3729H121.248C121.903 35.7804 122.989 34.5078 124.507 33.5553C126.025 32.6027 127.797 32.1264 129.821 32.1264C132.887 32.1264 135.424 33.1385 137.434 35.1627C139.458 37.172 140.47 39.7022 140.47 42.7533C140.47 46.0724 139.309 48.8035 136.987 50.9467C134.665 53.0751 131.703 54.1393 128.102 54.1393ZM128.035 48.7588C129.672 48.7588 131.056 48.2007 132.187 47.0844C133.333 45.9533 133.906 44.5766 133.906 42.9542C133.906 41.2873 133.348 39.9106 132.232 38.824C131.13 37.7375 129.739 37.1943 128.057 37.1943C126.375 37.1943 124.969 37.7375 123.837 38.824C122.721 39.9106 122.163 41.265 122.163 42.8873C122.163 44.5245 122.729 45.9161 123.86 47.0621C124.991 48.1933 126.383 48.7588 128.035 48.7588ZM152.593 53.4025V27.3711H152.459L144.243 33.0418V26.9693L152.57 21.187H159.268V53.4025H152.593Z" fill="black"/>
<path d="M221.77 54.1169C217.871 54.1169 214.715 53.2462 212.304 51.5049C209.908 49.7486 208.71 47.4714 208.71 44.6733C208.71 42.5598 209.409 40.7515 210.809 39.2482C212.208 37.7301 214.031 36.785 216.278 36.4129V36.279C214.403 35.8473 212.885 34.9692 211.724 33.6446C210.578 32.305 210.005 30.7497 210.005 28.9786C210.005 26.5079 211.106 24.4763 213.309 22.8837C215.512 21.2763 218.332 20.4726 221.77 20.4726C225.223 20.4726 228.044 21.2763 230.232 22.8837C232.42 24.4763 233.513 26.5153 233.513 29.0009C233.513 30.7423 232.94 32.2827 231.794 33.6222C230.648 34.9469 229.138 35.8324 227.262 36.279V36.4129C229.525 36.7999 231.348 37.7524 232.732 39.2706C234.131 40.7738 234.831 42.5822 234.831 44.6956C234.831 47.4937 233.618 49.7635 231.192 51.5049C228.78 53.2462 225.64 54.1169 221.77 54.1169ZM217.417 47.7989C218.548 48.7365 219.999 49.2054 221.77 49.2054C223.541 49.2054 224.985 48.7365 226.101 47.7989C227.218 46.8463 227.776 45.6407 227.776 44.1821C227.776 42.7235 227.218 41.5254 226.101 40.5878C224.985 39.6352 223.541 39.1589 221.77 39.1589C219.999 39.1589 218.548 39.6352 217.417 40.5878C216.301 41.5254 215.742 42.7235 215.742 44.1821C215.742 45.6407 216.301 46.8463 217.417 47.7989ZM218.109 32.9971C219.061 33.8306 220.282 34.2473 221.77 34.2473C223.259 34.2473 224.479 33.8306 225.432 32.9971C226.384 32.1488 226.86 31.0846 226.86 29.8046C226.86 28.5097 226.384 27.4455 225.432 26.6121C224.479 25.7637 223.259 25.3395 221.77 25.3395C220.282 25.3395 219.061 25.7637 218.109 26.6121C217.156 27.4455 216.68 28.5097 216.68 29.8046C216.68 31.0995 217.156 32.1636 218.109 32.9971ZM260.974 49.5849C258.667 52.6063 255.489 54.1169 251.441 54.1169C247.392 54.1169 244.207 52.6137 241.885 49.6072C239.564 46.5858 238.403 42.4631 238.403 37.2389C238.403 32.0446 239.564 27.9516 241.885 24.96C244.222 21.9535 247.407 20.4503 251.441 20.4503C255.474 20.4503 258.652 21.9461 260.974 24.9377C263.296 27.9293 264.456 32.0222 264.456 37.2166C264.456 42.4259 263.296 46.5486 260.974 49.5849ZM246.886 45.7003C247.988 47.7096 249.506 48.7142 251.441 48.7142C253.376 48.7142 254.886 47.717 255.973 45.7226C257.059 43.7133 257.603 40.8854 257.603 37.2389C257.603 33.6222 257.052 30.8241 255.95 28.8446C254.864 26.8502 253.361 25.853 251.441 25.853C249.521 25.853 248.01 26.8502 246.909 28.8446C245.807 30.839 245.257 33.6371 245.257 37.2389C245.257 40.8705 245.8 43.691 246.886 45.7003Z" fill="black"/>
<path d="M317.265 39.3375V34.4706H321.172C322.705 34.4706 323.948 34.0539 324.9 33.2204C325.853 32.3869 326.329 31.3078 326.329 29.9832C326.329 28.6586 325.875 27.6093 324.967 26.8353C324.059 26.0465 322.779 25.6521 321.127 25.6521C319.564 25.6521 318.299 26.0763 317.332 26.9246C316.364 27.773 315.836 28.9041 315.747 30.3181H309.54C309.659 27.3265 310.798 24.9377 312.956 23.1516C315.114 21.3656 317.935 20.4726 321.417 20.4726C324.781 20.4726 327.497 21.2614 329.566 22.8391C331.65 24.4167 332.692 26.493 332.692 29.0679C332.692 31.0176 332.081 32.6697 330.861 34.0241C329.64 35.3785 328.033 36.2343 326.039 36.5915V36.7255C328.465 36.9338 330.385 37.7301 331.799 39.1143C333.227 40.4836 333.942 42.277 333.942 44.4947C333.942 47.3672 332.759 49.6891 330.392 51.4602C328.04 53.2314 324.997 54.1169 321.261 54.1169C317.644 54.1169 314.72 53.209 312.487 51.3932C310.269 49.5774 309.079 47.1737 308.915 44.1821H315.367C315.471 45.5514 316.052 46.6454 317.108 47.464C318.18 48.2826 319.594 48.6919 321.35 48.6919C323.032 48.6919 324.409 48.2602 325.481 47.397C326.552 46.5337 327.088 45.4249 327.088 44.0705C327.088 42.597 326.567 41.4436 325.525 40.6101C324.483 39.7617 323.054 39.3375 321.239 39.3375H317.265ZM346.065 39.3375V34.4706H349.971C351.504 34.4706 352.747 34.0539 353.7 33.2204C354.652 32.3869 355.129 31.3078 355.129 29.9832C355.129 28.6586 354.675 27.6093 353.767 26.8353C352.859 26.0465 351.579 25.6521 349.927 25.6521C348.364 25.6521 347.099 26.0763 346.131 26.9246C345.164 27.773 344.636 28.9041 344.546 30.3181H338.34C338.459 27.3265 339.598 24.9377 341.756 23.1516C343.914 21.3656 346.734 20.4726 350.217 20.4726C353.581 20.4726 356.297 21.2614 358.366 22.8391C360.45 24.4167 361.491 26.493 361.491 29.0679C361.491 31.0176 360.881 32.6697 359.661 34.0241C358.44 35.3785 356.833 36.2343 354.838 36.5915V36.7255C357.264 36.9338 359.184 37.7301 360.598 39.1143C362.027 40.4836 362.742 42.277 362.742 44.4947C362.742 47.3672 361.558 49.6891 359.192 51.4602C356.84 53.2314 353.797 54.1169 350.061 54.1169C346.444 54.1169 343.519 53.209 341.287 51.3932C339.069 49.5774 337.879 47.1737 337.715 44.1821H344.167C344.271 45.5514 344.852 46.6454 345.908 47.464C346.98 48.2826 348.394 48.6919 350.15 48.6919C351.832 48.6919 353.209 48.2602 354.28 47.397C355.352 46.5337 355.888 45.4249 355.888 44.0705C355.888 42.597 355.367 41.4436 354.325 40.6101C353.283 39.7617 351.854 39.3375 350.038 39.3375H346.065Z" fill="black"/>
<path d="M20.3556 154.411C17.2747 154.411 14.6329 153.585 12.4301 151.933C10.2273 150.266 8.90271 148.115 8.4562 145.481H15.1092C15.4366 146.568 16.084 147.438 17.0515 148.093C18.0338 148.748 19.1724 149.075 20.4673 149.075C22.7147 149.075 24.4561 148.056 25.6914 146.017C26.9416 143.978 27.5221 141.128 27.4328 137.466H27.3658H27.3212H27.2988C26.7035 139.074 25.6467 140.354 24.1286 141.306C22.6105 142.259 20.8096 142.735 18.7259 142.735C15.6747 142.735 13.1296 141.73 11.0906 139.721C9.05154 137.697 8.03202 135.159 8.03202 132.108C8.03202 128.804 9.20038 126.088 11.5371 123.959C13.8738 121.816 16.8431 120.745 20.4449 120.745C22.7817 120.745 24.8728 121.251 26.7184 122.263C28.5788 123.275 30.0672 124.733 31.1834 126.638C32.9844 129.407 33.8848 132.964 33.8848 137.31C33.8848 142.653 32.6867 146.843 30.2904 149.879C27.9091 152.901 24.5975 154.411 20.3556 154.411ZM16.2924 136.037C17.4087 137.124 18.8077 137.667 20.4896 137.667C22.1714 137.667 23.5705 137.124 24.6868 136.037C25.8179 134.936 26.3835 133.574 26.3835 131.952C26.3835 130.315 25.8179 128.938 24.6868 127.822C23.5556 126.691 22.1714 126.125 20.5342 126.125C18.8822 126.125 17.4831 126.683 16.3371 127.799C15.191 128.916 14.618 130.285 14.618 131.907C14.618 133.559 15.1761 134.936 16.2924 136.037ZM50.6958 154.411C46.7963 154.411 43.641 153.541 41.2299 151.799C38.8336 150.043 37.6355 147.766 37.6355 144.968C37.6355 142.854 38.335 141.046 39.7341 139.543C41.1331 138.024 42.9564 137.079 45.2038 136.707V136.573C43.3285 136.142 41.8103 135.264 40.6494 133.939C39.5034 132.599 38.9304 131.044 38.9304 129.273C38.9304 126.802 40.0317 124.771 42.2345 123.178C44.4373 121.571 47.2577 120.767 50.6958 120.767C54.1488 120.767 56.9693 121.571 59.1572 123.178C61.345 124.771 62.439 126.81 62.439 129.295C62.439 131.037 61.866 132.577 60.7199 133.917C59.5739 135.241 58.0632 136.127 56.1879 136.573V136.707C58.4502 137.094 60.2734 138.047 61.6576 139.565C63.0567 141.068 63.7562 142.876 63.7562 144.99C63.7562 147.788 62.5432 150.058 60.1171 151.799C57.706 153.541 54.5656 154.411 50.6958 154.411ZM46.3424 148.093C47.4735 149.031 48.9247 149.5 50.6958 149.5C52.467 149.5 53.9107 149.031 55.027 148.093C56.1432 147.141 56.7014 145.935 56.7014 144.476C56.7014 143.018 56.1432 141.82 55.027 140.882C53.9107 139.93 52.467 139.453 50.6958 139.453C48.9247 139.453 47.4735 139.93 46.3424 140.882C45.2261 141.82 44.668 143.018 44.668 144.476C44.668 145.935 45.2261 147.141 46.3424 148.093ZM47.0345 133.291C47.987 134.125 49.2075 134.542 50.6958 134.542C52.1842 134.542 53.4046 134.125 54.3572 133.291C55.3097 132.443 55.786 131.379 55.786 130.099C55.786 128.804 55.3097 127.74 54.3572 126.906C53.4046 126.058 52.1842 125.634 50.6958 125.634C49.2075 125.634 47.987 126.058 47.0345 126.906C46.0819 127.74 45.6056 128.804 45.6056 130.099C45.6056 131.394 46.0819 132.458 47.0345 133.291Z" fill="black"/>
<path d="M21.1817 254.706C17.2822 254.706 14.1268 253.835 11.7157 252.093C9.31945 250.337 8.12132 248.06 8.12132 245.262C8.12132 243.148 8.82085 241.34 10.2199 239.837C11.619 238.319 13.4422 237.374 15.6896 237.001V236.868C13.8143 236.436 12.2962 235.558 11.1352 234.233C9.98921 232.894 9.41619 231.338 9.41619 229.567C9.41619 227.096 10.5176 225.065 12.7203 223.472C14.9231 221.865 17.7436 221.061 21.1817 221.061C24.6347 221.061 27.4551 221.865 29.643 223.472C31.8309 225.065 32.9248 227.104 32.9248 229.589C32.9248 231.331 32.3518 232.871 31.2058 234.211C30.0597 235.535 28.549 236.421 26.6737 236.868V237.001C28.936 237.388 30.7593 238.341 32.1434 239.859C33.5425 241.362 34.242 243.171 34.242 245.284C34.242 248.082 33.029 250.352 30.603 252.093C28.1918 253.835 25.0514 254.706 21.1817 254.706ZM16.8282 248.387C17.9594 249.325 19.4105 249.794 21.1817 249.794C22.9528 249.794 24.3965 249.325 25.5128 248.387C26.6291 247.435 27.1872 246.229 27.1872 244.771C27.1872 243.312 26.6291 242.114 25.5128 241.176C24.3965 240.224 22.9528 239.747 21.1817 239.747C19.4105 239.747 17.9594 240.224 16.8282 241.176C15.712 242.114 15.1538 243.312 15.1538 244.771C15.1538 246.229 15.712 247.435 16.8282 248.387ZM17.5203 233.586C18.4729 234.419 19.6933 234.836 21.1817 234.836C22.67 234.836 23.8905 234.419 24.843 233.586C25.7956 232.737 26.2719 231.673 26.2719 230.393C26.2719 229.098 25.7956 228.034 24.843 227.201C23.8905 226.352 22.67 225.928 21.1817 225.928C19.6933 225.928 18.4729 226.352 17.5203 227.201C16.5678 228.034 16.0915 229.098 16.0915 230.393C16.0915 231.688 16.5678 232.752 17.5203 233.586ZM50.1824 254.706C47.1014 254.706 44.4596 253.879 42.2568 252.227C40.0541 250.56 38.7294 248.41 38.2829 245.775H44.9359C45.2633 246.862 45.9108 247.733 46.8782 248.387C47.8605 249.042 48.9991 249.37 50.294 249.37C52.5414 249.37 54.2828 248.35 55.5181 246.311C56.7683 244.272 57.3488 241.422 57.2595 237.761H57.1925H57.1479H57.1255C56.5302 239.368 55.4735 240.648 53.9553 241.6C52.4372 242.553 50.6363 243.029 48.5526 243.029C45.5015 243.029 42.9564 242.025 40.9173 240.015C38.8783 237.991 37.8587 235.454 37.8587 232.402C37.8587 229.098 39.0271 226.382 41.3638 224.254C43.7005 222.11 46.6698 221.039 50.2717 221.039C52.6084 221.039 54.6995 221.545 56.5451 222.557C58.4055 223.569 59.8939 225.028 61.0102 226.933C62.8111 229.701 63.7115 233.258 63.7115 237.604C63.7115 242.947 62.5134 247.137 60.1171 250.173C57.7358 253.195 54.4242 254.706 50.1824 254.706ZM46.1191 236.332C47.2354 237.418 48.6345 237.961 50.3163 237.961C51.9981 237.961 53.3972 237.418 54.5135 236.332C55.6446 235.23 56.2102 233.868 56.2102 232.246C56.2102 230.609 55.6446 229.232 54.5135 228.116C53.3823 226.985 51.9981 226.419 50.361 226.419C48.7089 226.419 47.3098 226.977 46.1638 228.094C45.0177 229.21 44.4447 230.579 44.4447 232.202C44.4447 233.854 45.0029 235.23 46.1191 236.332Z" fill="black"/>
<path d="M143.005 253.991V248.253H126.975V242.516C129.595 237.515 133.904 230.602 139.902 221.776H149.412V242.851H153.61V248.253H149.412V253.991H143.005ZM132.892 242.873V243.052H143.139V226.553H143.005C140.519 230.185 138.525 233.214 137.022 235.64C135.519 238.051 134.142 240.462 132.892 242.873Z" fill="black"/>
<path d="M221.77 254.706C217.871 254.706 214.715 253.835 212.304 252.093C209.908 250.337 208.71 248.06 208.71 245.262C208.71 243.148 209.409 241.34 210.809 239.837C212.208 238.319 214.031 237.374 216.278 237.001V236.868C214.403 236.436 212.885 235.558 211.724 234.233C210.578 232.894 210.005 231.338 210.005 229.567C210.005 227.096 211.106 225.065 213.309 223.472C215.512 221.865 218.332 221.061 221.77 221.061C225.223 221.061 228.044 221.865 230.232 223.472C232.42 225.065 233.513 227.104 233.513 229.589C233.513 231.331 232.94 232.871 231.794 234.211C230.648 235.535 229.138 236.421 227.262 236.868V237.001C229.525 237.388 231.348 238.341 232.732 239.859C234.131 241.362 234.831 243.171 234.831 245.284C234.831 248.082 233.618 250.352 231.192 252.093C228.78 253.835 225.64 254.706 221.77 254.706ZM217.417 248.387C218.548 249.325 219.999 249.794 221.77 249.794C223.541 249.794 224.985 249.325 226.101 248.387C227.218 247.435 227.776 246.229 227.776 244.771C227.776 243.312 227.218 242.114 226.101 241.176C224.985 240.224 223.541 239.747 221.77 239.747C219.999 239.747 218.548 240.224 217.417 241.176C216.301 242.114 215.742 243.312 215.742 244.771C215.742 246.229 216.301 247.435 217.417 248.387ZM218.109 233.586C219.061 234.419 220.282 234.836 221.77 234.836C223.259 234.836 224.479 234.419 225.432 233.586C226.384 232.737 226.86 231.673 226.86 230.393C226.86 229.098 226.384 228.034 225.432 227.201C224.479 226.352 223.259 225.928 221.77 225.928C220.282 225.928 219.061 226.352 218.109 227.201C217.156 228.034 216.68 229.098 216.68 230.393C216.68 231.688 217.156 232.752 218.109 233.586ZM254.321 253.991V248.253H238.291V242.516C240.911 237.515 245.219 230.602 251.217 221.776H260.728V242.851H264.925V248.253H260.728V253.991H254.321ZM244.207 242.873V243.052H254.455V226.553H254.321C251.835 230.185 249.841 233.214 248.338 235.64C246.834 238.051 245.458 240.462 244.207 242.873Z" fill="black"/>
<path d="M322.065 254.706C318.165 254.706 315.01 253.835 312.599 252.093C310.203 250.337 309.004 248.06 309.004 245.262C309.004 243.148 309.704 241.34 311.103 239.837C312.502 238.319 314.325 237.374 316.573 237.001V236.868C314.697 236.436 313.179 235.558 312.018 234.233C310.872 232.894 310.299 231.338 310.299 229.567C310.299 227.096 311.401 225.065 313.603 223.472C315.806 221.865 318.627 221.061 322.065 221.061C325.518 221.061 328.338 221.865 330.526 223.472C332.714 225.065 333.808 227.104 333.808 229.589C333.808 231.331 333.235 232.871 332.089 234.211C330.943 235.535 329.432 236.421 327.557 236.868V237.001C329.819 237.388 331.642 238.341 333.026 239.859C334.426 241.362 335.125 243.171 335.125 245.284C335.125 248.082 333.912 250.352 331.486 252.093C329.075 253.835 325.934 254.706 322.065 254.706ZM317.711 248.387C318.842 249.325 320.294 249.794 322.065 249.794C323.836 249.794 325.28 249.325 326.396 248.387C327.512 247.435 328.07 246.229 328.07 244.771C328.07 243.312 327.512 242.114 326.396 241.176C325.28 240.224 323.836 239.747 322.065 239.747C320.294 239.747 318.842 240.224 317.711 241.176C316.595 242.114 316.037 243.312 316.037 244.771C316.037 246.229 316.595 247.435 317.711 248.387ZM318.403 233.586C319.356 234.419 320.576 234.836 322.065 234.836C323.553 234.836 324.774 234.419 325.726 233.586C326.679 232.737 327.155 231.673 327.155 230.393C327.155 229.098 326.679 228.034 325.726 227.201C324.774 226.352 323.553 225.928 322.065 225.928C320.576 225.928 319.356 226.352 318.403 227.201C317.451 228.034 316.975 229.098 316.975 230.393C316.975 231.688 317.451 232.752 318.403 233.586ZM338.876 231.465C338.876 228.414 339.977 225.921 342.18 223.986C344.398 222.036 347.263 221.061 350.775 221.061C354.154 221.061 356.907 221.939 359.036 223.696C361.164 225.437 362.228 227.662 362.228 230.371C362.228 231.338 362.079 232.276 361.782 233.184C361.499 234.077 361.037 234.977 360.397 235.885C359.772 236.778 359.14 237.589 358.5 238.319C357.86 239.033 357.026 239.904 355.999 240.931L348.141 248.499V248.633H362.675V253.991H339.255V249.459L351.4 237.761C353.037 236.123 354.154 234.806 354.749 233.809C355.359 232.812 355.664 231.755 355.664 230.639C355.664 229.418 355.181 228.391 354.213 227.558C353.246 226.724 352.025 226.308 350.552 226.308C348.989 226.308 347.694 226.799 346.667 227.781C345.64 228.749 345.127 229.976 345.127 231.465V231.576H338.876V231.465Z" fill="black"/>
<path d="M49.4977 350.468C47.1907 353.489 44.0131 355 39.9648 355C35.9164 355 32.7313 353.497 30.4095 350.49C28.0877 347.469 26.9267 343.346 26.9267 338.122C26.9267 332.927 28.0877 328.834 30.4095 325.843C32.7462 322.836 35.9313 321.333 39.9648 321.333C43.9982 321.333 47.1759 322.829 49.4977 325.821C51.8195 328.812 52.9805 332.905 52.9805 338.099C52.9805 343.309 51.8195 347.432 49.4977 350.468ZM35.4104 346.583C36.5118 348.592 38.0299 349.597 39.9648 349.597C41.8996 349.597 43.4103 348.6 44.4968 346.605C45.5833 344.596 46.1266 341.768 46.1266 338.122C46.1266 334.505 45.5759 331.707 44.4745 329.727C43.388 327.733 41.8847 326.736 39.9648 326.736C38.0448 326.736 36.5341 327.733 35.4327 329.727C34.3313 331.722 33.7806 334.52 33.7806 338.122C33.7806 341.753 34.3239 344.574 35.4104 346.583Z" fill="black"/>
<path d="M124.2 354.285V348.548H108.17V342.81C110.79 337.809 115.098 330.896 121.097 322.07H130.607V343.145H134.804V348.548H130.607V354.285H124.2ZM114.086 343.167V343.346H124.334V326.847H124.2C121.714 330.479 119.72 333.508 118.217 335.934C116.713 338.345 115.337 340.756 114.086 343.167ZM150.879 355C147.426 355 144.568 354.077 142.306 352.231C140.058 350.371 138.882 347.982 138.778 345.065H145.007C145.201 346.434 145.841 347.543 146.927 348.391C148.028 349.24 149.361 349.664 150.923 349.664C152.68 349.664 154.108 349.113 155.21 348.012C156.326 346.896 156.884 345.459 156.884 343.703C156.884 341.917 156.333 340.459 155.232 339.327C154.131 338.196 152.709 337.631 150.968 337.631C149.747 337.631 148.639 337.899 147.641 338.434C146.659 338.955 145.885 339.677 145.32 340.6H139.292L140.877 322.07H161.372V327.428H146.168L145.431 336.246H145.565C146.235 335.145 147.188 334.282 148.423 333.657C149.673 333.032 151.109 332.719 152.732 332.719C155.813 332.719 158.343 333.739 160.322 335.778C162.317 337.802 163.314 340.384 163.314 343.525C163.314 346.933 162.16 349.701 159.853 351.83C157.561 353.943 154.57 355 150.879 355Z" fill="black"/>
<path d="M221.77 355C217.871 355 214.715 354.129 212.304 352.388C209.908 350.631 208.71 348.354 208.71 345.556C208.71 343.443 209.409 341.634 210.809 340.131C212.208 338.613 214.031 337.668 216.278 337.296V337.162C214.403 336.73 212.885 335.852 211.724 334.527C210.578 333.188 210.005 331.633 210.005 329.861C210.005 327.391 211.106 325.359 213.309 323.767C215.512 322.159 218.332 321.355 221.77 321.355C225.223 321.355 228.044 322.159 230.232 323.767C232.42 325.359 233.513 327.398 233.513 329.884C233.513 331.625 232.94 333.166 231.794 334.505C230.648 335.83 229.138 336.715 227.262 337.162V337.296C229.525 337.683 231.348 338.635 232.732 340.153C234.131 341.657 234.831 343.465 234.831 345.578C234.831 348.377 233.618 350.646 231.192 352.388C228.78 354.129 225.64 355 221.77 355ZM217.417 348.682C218.548 349.619 219.999 350.088 221.77 350.088C223.541 350.088 224.985 349.619 226.101 348.682C227.218 347.729 227.776 346.524 227.776 345.065C227.776 343.606 227.218 342.408 226.101 341.471C224.985 340.518 223.541 340.042 221.77 340.042C219.999 340.042 218.548 340.518 217.417 341.471C216.301 342.408 215.742 343.606 215.742 345.065C215.742 346.524 216.301 347.729 217.417 348.682ZM218.109 333.88C219.061 334.713 220.282 335.13 221.77 335.13C223.259 335.13 224.479 334.713 225.432 333.88C226.384 333.032 226.86 331.967 226.86 330.687C226.86 329.393 226.384 328.328 225.432 327.495C224.479 326.647 223.259 326.222 221.77 326.222C220.282 326.222 219.061 326.647 218.109 327.495C217.156 328.328 216.68 329.393 216.68 330.687C216.68 331.982 217.156 333.047 218.109 333.88ZM251.82 355.022C249.498 355.022 247.415 354.516 245.569 353.504C243.738 352.477 242.258 351.004 241.126 349.084C239.325 346.33 238.425 342.78 238.425 338.434C238.425 333.121 239.631 328.946 242.042 325.91C244.453 322.859 247.75 321.333 251.932 321.333C254.998 321.333 257.625 322.159 259.813 323.811C262.001 325.463 263.318 327.607 263.764 330.241H257.134C256.806 329.169 256.166 328.306 255.214 327.651C254.261 326.996 253.152 326.669 251.887 326.669C249.625 326.669 247.861 327.696 246.596 329.75C245.346 331.804 244.758 334.639 244.832 338.256H244.966C245.621 336.663 246.708 335.391 248.226 334.438C249.744 333.486 251.515 333.009 253.539 333.009C256.605 333.009 259.143 334.021 261.152 336.046C263.176 338.055 264.189 340.585 264.189 343.636C264.189 346.955 263.028 349.686 260.706 351.83C258.384 353.958 255.422 355.022 251.82 355.022ZM251.753 349.642C253.39 349.642 254.775 349.084 255.906 347.967C257.052 346.836 257.625 345.459 257.625 343.837C257.625 342.17 257.067 340.793 255.95 339.707C254.849 338.62 253.457 338.077 251.776 338.077C250.094 338.077 248.687 338.62 247.556 339.707C246.44 340.793 245.882 342.148 245.882 343.77C245.882 345.407 246.447 346.799 247.578 347.945C248.71 349.076 250.101 349.642 251.753 349.642Z" fill="black"/>
<path d="M322.065 355C318.165 355 315.01 354.129 312.599 352.388C310.203 350.631 309.004 348.354 309.004 345.556C309.004 343.443 309.704 341.634 311.103 340.131C312.502 338.613 314.325 337.668 316.573 337.296V337.162C314.697 336.73 313.179 335.852 312.018 334.527C310.872 333.188 310.299 331.633 310.299 329.861C310.299 327.391 311.401 325.359 313.603 323.767C315.806 322.159 318.627 321.355 322.065 321.355C325.518 321.355 328.338 322.159 330.526 323.767C332.714 325.359 333.808 327.398 333.808 329.884C333.808 331.625 333.235 333.166 332.089 334.505C330.943 335.83 329.432 336.715 327.557 337.162V337.296C329.819 337.683 331.642 338.635 333.026 340.153C334.426 341.657 335.125 343.465 335.125 345.578C335.125 348.377 333.912 350.646 331.486 352.388C329.075 354.129 325.934 355 322.065 355ZM317.711 348.682C318.842 349.619 320.294 350.088 322.065 350.088C323.836 350.088 325.28 349.619 326.396 348.682C327.512 347.729 328.07 346.524 328.07 345.065C328.07 343.606 327.512 342.408 326.396 341.471C325.28 340.518 323.836 340.042 322.065 340.042C320.294 340.042 318.842 340.518 317.711 341.471C316.595 342.408 316.037 343.606 316.037 345.065C316.037 346.524 316.595 347.729 317.711 348.682ZM318.403 333.88C319.356 334.713 320.576 335.13 322.065 335.13C323.553 335.13 324.774 334.713 325.726 333.88C326.679 333.032 327.155 331.967 327.155 330.687C327.155 329.393 326.679 328.328 325.726 327.495C324.774 326.647 323.553 326.222 322.065 326.222C320.576 326.222 319.356 326.647 318.403 327.495C317.451 328.328 316.975 329.393 316.975 330.687C316.975 331.982 317.451 333.047 318.403 333.88ZM347.091 340.22V335.353H350.998C352.531 335.353 353.774 334.937 354.727 334.103C355.679 333.27 356.156 332.191 356.156 330.866C356.156 329.541 355.702 328.492 354.794 327.718C353.886 326.929 352.606 326.535 350.954 326.535C349.391 326.535 348.126 326.959 347.158 327.807C346.191 328.656 345.663 329.787 345.573 331.201H339.367C339.486 328.209 340.625 325.821 342.783 324.034C344.941 322.248 347.761 321.355 351.244 321.355C354.608 321.355 357.324 322.144 359.393 323.722C361.476 325.3 362.518 327.376 362.518 329.951C362.518 331.9 361.908 333.553 360.688 334.907C359.467 336.261 357.86 337.117 355.865 337.474V337.608C358.291 337.817 360.211 338.613 361.625 339.997C363.054 341.366 363.769 343.16 363.769 345.378C363.769 348.25 362.585 350.572 360.219 352.343C357.867 354.114 354.824 355 351.088 355C347.471 355 344.546 354.092 342.314 352.276C340.096 350.46 338.906 348.057 338.742 345.065H345.194C345.298 346.434 345.878 347.528 346.935 348.347C348.007 349.165 349.421 349.575 351.177 349.575C352.859 349.575 354.236 349.143 355.307 348.28C356.379 347.417 356.915 346.308 356.915 344.953C356.915 343.48 356.394 342.326 355.352 341.493C354.31 340.645 352.881 340.22 351.065 340.22H347.091Z" fill="black"/>
<g filter="url(#filter0_b_27_486)">
<rect y="100.294" width="394.909" height="194.32" rx="13.7167" fill="#515151" fill-opacity="0.8"/>
<rect x="2.28612" y="102.58" width="390.337" height="189.748" rx="11.4306" stroke="url(#paint0_linear_27_486)" stroke-width="4.57224"/>
</g>
<g filter="url(#filter1_b_27_486)">
<rect x="392.623" y="292.328" width="390.337" height="189.748" rx="11.4306" transform="rotate(-180 392.623 292.328)" stroke="url(#paint1_linear_27_486)" stroke-width="4.57224"/>
</g>
<path d="M128.284 138.831H124.262V130.733H115.604V138.831H111.581V119.611H115.604V127.416H124.262V119.611H128.284V138.831ZM136.928 136.247C137.79 136.247 138.518 135.998 139.113 135.501C139.717 134.995 140.019 134.36 140.019 133.597V132.558L137.008 132.744C136.28 132.797 135.716 132.979 135.317 133.29C134.926 133.601 134.731 134.009 134.731 134.516C134.731 135.048 134.93 135.47 135.33 135.781C135.73 136.092 136.262 136.247 136.928 136.247ZM135.65 139.057C134.273 139.057 133.132 138.653 132.227 137.845C131.321 137.037 130.868 135.998 130.868 134.729C130.868 133.432 131.348 132.416 132.307 131.679C133.266 130.942 134.637 130.52 136.422 130.413L140.019 130.2V129.254C140.019 128.597 139.801 128.082 139.366 127.709C138.94 127.336 138.358 127.15 137.621 127.15C136.911 127.15 136.329 127.31 135.876 127.629C135.432 127.949 135.161 128.38 135.064 128.921H131.507C131.578 127.518 132.178 126.391 133.306 125.538C134.433 124.677 135.929 124.246 137.794 124.246C139.623 124.246 141.089 124.681 142.19 125.552C143.291 126.422 143.841 127.576 143.841 129.015V138.831H140.085V136.647H140.005C139.614 137.393 139.02 137.983 138.22 138.418C137.421 138.844 136.564 139.057 135.65 139.057ZM150.408 138.831H146.598V124.553H150.408V133.477H150.514L156.188 124.553H159.998V138.831H156.188V129.8H156.082L150.408 138.831ZM148.729 118.093H151.1C151.118 118.812 151.336 119.402 151.753 119.864C152.17 120.317 152.725 120.543 153.418 120.543C154.102 120.543 154.652 120.317 155.069 119.864C155.487 119.402 155.704 118.812 155.722 118.093H158.106C158.106 119.407 157.676 120.468 156.814 121.276C155.953 122.075 154.821 122.475 153.418 122.475C152.015 122.475 150.883 122.075 150.021 121.276C149.16 120.468 148.729 119.407 148.729 118.093ZM172.345 135.887V127.47H168.069L167.75 131.985C167.634 133.654 167.288 134.92 166.711 135.781V135.887H172.345ZM165.192 142.534H161.663V135.887H162.755C163.643 135.381 164.167 133.996 164.326 131.732L164.793 124.553H176.221V135.887H178.339V142.534H174.796V138.831H165.192V142.534ZM183.893 138.831H180.083V124.553H183.893V133.477H183.999L189.673 124.553H193.483V138.831H189.673V129.8H189.567L183.893 138.831ZM214.341 138.831H210.465V132.891H210.319C209.439 133.841 208.219 134.316 206.656 134.316C205.031 134.316 203.752 133.845 202.82 132.904C201.887 131.954 201.421 130.666 201.421 129.041V124.553H205.297V128.482C205.297 129.299 205.515 129.938 205.95 130.4C206.394 130.862 207.006 131.092 207.788 131.092C208.995 131.092 209.888 130.715 210.465 129.96V124.553H214.341V138.831ZM220.947 138.831H217.138V124.553H220.947V133.477H221.054L226.728 124.553H230.537V138.831H226.728V129.8H226.622L220.947 138.831ZM246.188 129.428H242.552C242.383 128.779 242.063 128.264 241.593 127.882C241.122 127.492 240.531 127.296 239.821 127.296C238.862 127.296 238.103 127.687 237.543 128.469C236.993 129.25 236.718 130.32 236.718 131.679C236.718 133.064 236.993 134.147 237.543 134.928C238.103 135.701 238.867 136.087 239.834 136.087C240.554 136.087 241.149 135.901 241.619 135.528C242.09 135.155 242.41 134.631 242.578 133.956H246.201C246.024 135.546 245.362 136.806 244.217 137.739C243.071 138.671 241.597 139.137 239.794 139.137C237.646 139.137 235.941 138.471 234.68 137.139C233.428 135.808 232.802 133.987 232.802 131.679C232.802 129.405 233.428 127.598 234.68 126.257C235.941 124.917 237.637 124.246 239.768 124.246C241.57 124.246 243.04 124.726 244.177 125.685C245.322 126.644 245.992 127.891 246.188 129.428ZM253.487 131.985C253.425 133.095 253.296 134.063 253.101 134.888C252.905 135.705 252.621 136.434 252.248 137.073C251.875 137.712 251.378 138.196 250.756 138.525C250.144 138.844 249.407 139.004 248.545 139.004C248.03 139.004 247.617 138.942 247.307 138.818V135.541C247.555 135.603 247.835 135.634 248.146 135.634C248.776 135.634 249.229 135.297 249.504 134.622C249.789 133.947 249.966 132.984 250.037 131.732L250.437 124.553H261.265V138.831H257.389V127.483H253.767L253.487 131.985ZM275.797 137.166C274.527 138.48 272.805 139.137 270.629 139.137C268.453 139.137 266.731 138.476 265.461 137.153C264.191 135.83 263.556 134.005 263.556 131.679C263.556 129.379 264.196 127.567 265.474 126.244C266.762 124.912 268.48 124.246 270.629 124.246C272.787 124.246 274.505 124.912 275.784 126.244C277.062 127.567 277.702 129.379 277.702 131.679C277.702 134.014 277.067 135.843 275.797 137.166ZM270.629 136.167C271.588 136.167 272.347 135.776 272.907 134.995C273.466 134.214 273.746 133.113 273.746 131.692C273.746 130.289 273.466 129.192 272.907 128.402C272.347 127.612 271.588 127.216 270.629 127.216C269.67 127.216 268.906 127.612 268.338 128.402C267.779 129.192 267.499 130.289 267.499 131.692C267.499 133.113 267.779 134.214 268.338 134.995C268.897 135.776 269.661 136.167 270.629 136.167Z" fill="white"/>
<path d="M128.284 138.831V138.999H128.452V138.831H128.284ZM124.262 138.831H124.094V138.999H124.262V138.831ZM124.262 130.733H124.429V130.565H124.262V130.733ZM115.604 130.733V130.565H115.436V130.733H115.604ZM115.604 138.831V138.999H115.771V138.831H115.604ZM111.581 138.831H111.414V138.999H111.581V138.831ZM111.581 119.611V119.444H111.414V119.611H111.581ZM115.604 119.611H115.771V119.444H115.604V119.611ZM115.604 127.416H115.436V127.584H115.604V127.416ZM124.262 127.416V127.584H124.429V127.416H124.262ZM124.262 119.611V119.444H124.094V119.611H124.262ZM128.284 119.611H128.452V119.444H128.284V119.611ZM128.284 138.664H124.262V138.999H128.284V138.664ZM124.429 138.831V130.733H124.094V138.831H124.429ZM124.262 130.565H115.604V130.9H124.262V130.565ZM115.436 130.733V138.831H115.771V130.733H115.436ZM115.604 138.664H111.581V138.999H115.604V138.664ZM111.749 138.831V119.611H111.414V138.831H111.749ZM111.581 119.779H115.604V119.444H111.581V119.779ZM115.436 119.611V127.416H115.771V119.611H115.436ZM115.604 127.584H124.262V127.249H115.604V127.584ZM124.429 127.416V119.611H124.094V127.416H124.429ZM124.262 119.779H128.284V119.444H124.262V119.779ZM128.117 119.611V138.831H128.452V119.611H128.117ZM139.113 135.501L139.22 135.63L139.22 135.63L139.113 135.501ZM140.019 132.558H140.186V132.379L140.008 132.39L140.019 132.558ZM137.008 132.744L136.998 132.577L136.996 132.577L137.008 132.744ZM135.317 133.29L135.214 133.158L135.212 133.159L135.317 133.29ZM132.307 131.679L132.409 131.811L132.307 131.679ZM136.422 130.413L136.412 130.246L136.412 130.246L136.422 130.413ZM140.019 130.2L140.028 130.367L140.186 130.358V130.2H140.019ZM139.366 127.709L139.256 127.835L139.257 127.836L139.366 127.709ZM135.876 127.629L135.78 127.493L135.778 127.493L135.876 127.629ZM135.064 128.921V129.089H135.204L135.229 128.951L135.064 128.921ZM131.507 128.921L131.34 128.913L131.331 129.089H131.507V128.921ZM133.306 125.538L133.407 125.672L133.407 125.671L133.306 125.538ZM142.19 125.552L142.293 125.42L142.19 125.552ZM143.841 138.831V138.999H144.009V138.831H143.841ZM140.085 138.831H139.918V138.999H140.085V138.831ZM140.085 136.647H140.253V136.479H140.085V136.647ZM140.005 136.647V136.479H139.904L139.857 136.569L140.005 136.647ZM138.22 138.418L138.299 138.566L138.3 138.565L138.22 138.418ZM136.928 136.415C137.824 136.415 138.592 136.155 139.22 135.63L139.005 135.373C138.444 135.842 137.755 136.08 136.928 136.08V136.415ZM139.22 135.63C139.861 135.093 140.186 134.411 140.186 133.597H139.851C139.851 134.309 139.572 134.897 139.005 135.373L139.22 135.63ZM140.186 133.597V132.558H139.851V133.597H140.186ZM140.008 132.39L136.998 132.577L137.019 132.911L140.029 132.725L140.008 132.39ZM136.996 132.577C136.249 132.632 135.649 132.82 135.214 133.158L135.42 133.422C135.784 133.139 136.311 132.963 137.021 132.911L136.996 132.577ZM135.212 133.159C134.781 133.502 134.563 133.959 134.563 134.516H134.898C134.898 134.06 135.071 133.7 135.421 133.421L135.212 133.159ZM134.563 134.516C134.563 135.097 134.784 135.569 135.227 135.913L135.433 135.649C135.077 135.372 134.898 135 134.898 134.516H134.563ZM135.227 135.913C135.664 136.253 136.237 136.415 136.928 136.415V136.08C136.288 136.08 135.795 135.93 135.433 135.649L135.227 135.913ZM135.65 138.89C134.309 138.89 133.209 138.497 132.338 137.72L132.115 137.97C133.056 138.81 134.238 139.225 135.65 139.225V138.89ZM132.338 137.72C131.47 136.946 131.036 135.953 131.036 134.729H130.701C130.701 136.044 131.172 137.129 132.115 137.97L132.338 137.72ZM131.036 134.729C131.036 133.48 131.494 132.514 132.409 131.811L132.204 131.546C131.201 132.317 130.701 133.385 130.701 134.729H131.036ZM132.409 131.811C133.331 131.102 134.666 130.686 136.432 130.58L136.412 130.246C134.609 130.354 133.2 130.781 132.204 131.546L132.409 131.811ZM136.432 130.58L140.028 130.367L140.009 130.033L136.412 130.246L136.432 130.58ZM140.186 130.2V129.254H139.851V130.2H140.186ZM140.186 129.254C140.186 128.556 139.953 127.992 139.475 127.582L139.257 127.836C139.649 128.173 139.851 128.638 139.851 129.254H140.186ZM139.476 127.583C139.011 127.176 138.386 126.982 137.621 126.982V127.317C138.33 127.317 138.868 127.496 139.256 127.835L139.476 127.583ZM137.621 126.982C136.886 126.982 136.268 127.148 135.78 127.493L135.973 127.766C136.39 127.471 136.935 127.317 137.621 127.317V126.982ZM135.778 127.493C135.299 127.839 135.004 128.308 134.899 128.892L135.229 128.951C135.319 128.452 135.566 128.059 135.974 127.765L135.778 127.493ZM135.064 128.754H131.507V129.089H135.064V128.754ZM131.675 128.93C131.743 127.577 132.318 126.495 133.407 125.672L133.205 125.405C132.038 126.287 131.414 127.46 131.34 128.913L131.675 128.93ZM133.407 125.671C134.498 124.838 135.955 124.414 137.794 124.414V124.079C135.904 124.079 134.369 124.515 133.204 125.405L133.407 125.671ZM137.794 124.414C139.597 124.414 141.022 124.842 142.086 125.683L142.293 125.42C141.155 124.52 139.65 124.079 137.794 124.079V124.414ZM142.086 125.683C143.145 126.521 143.674 127.626 143.674 129.015H144.009C144.009 127.526 143.436 126.323 142.293 125.42L142.086 125.683ZM143.674 129.015V138.831H144.009V129.015H143.674ZM143.841 138.664H140.085V138.999H143.841V138.664ZM140.253 138.831V136.647H139.918V138.831H140.253ZM140.085 136.479H140.005V136.814H140.085V136.479ZM139.857 136.569C139.483 137.283 138.913 137.85 138.14 138.271L138.3 138.565C139.126 138.116 139.746 137.502 140.154 136.724L139.857 136.569ZM138.142 138.27C137.367 138.684 136.537 138.89 135.65 138.89V139.225C136.592 139.225 137.476 139.005 138.299 138.566L138.142 138.27ZM150.408 138.831V138.999H150.5L150.549 138.92L150.408 138.831ZM146.598 138.831H146.431V138.999H146.598V138.831ZM146.598 124.553V124.385H146.431V124.553H146.598ZM150.408 124.553H150.575V124.385H150.408V124.553ZM150.408 133.477H150.24V133.644H150.408V133.477ZM150.514 133.477V133.644H150.606L150.656 133.567L150.514 133.477ZM156.188 124.553V124.385H156.096L156.047 124.463L156.188 124.553ZM159.998 124.553H160.165V124.385H159.998V124.553ZM159.998 138.831V138.999H160.165V138.831H159.998ZM156.188 138.831H156.021V138.999H156.188V138.831ZM156.188 129.8H156.356V129.633H156.188V129.8ZM156.082 129.8V129.633H155.989L155.94 129.711L156.082 129.8ZM148.729 118.093V117.925H148.562V118.093H148.729ZM151.1 118.093L151.268 118.089L151.264 117.925H151.1V118.093ZM151.753 119.864L151.629 119.976L151.63 119.978L151.753 119.864ZM155.069 119.864L155.193 119.978L155.194 119.976L155.069 119.864ZM155.722 118.093V117.925H155.559L155.555 118.089L155.722 118.093ZM158.106 118.093H158.274V117.925H158.106V118.093ZM156.814 121.276L156.928 121.399L156.929 121.398L156.814 121.276ZM150.021 121.276L149.907 121.398L149.907 121.399L150.021 121.276ZM150.408 138.664H146.598V138.999H150.408V138.664ZM146.766 138.831V124.553H146.431V138.831H146.766ZM146.598 124.72H150.408V124.385H146.598V124.72ZM150.24 124.553V133.477H150.575V124.553H150.24ZM150.408 133.644H150.514V133.309H150.408V133.644ZM150.656 133.567L156.33 124.642L156.047 124.463L150.373 133.387L150.656 133.567ZM156.188 124.72H159.998V124.385H156.188V124.72ZM159.83 124.553V138.831H160.165V124.553H159.83ZM159.998 138.664H156.188V138.999H159.998V138.664ZM156.356 138.831V129.8H156.021V138.831H156.356ZM156.188 129.633H156.082V129.968H156.188V129.633ZM155.94 129.711L150.266 138.742L150.549 138.92L156.224 129.89L155.94 129.711ZM148.729 118.26H151.1V117.925H148.729V118.26ZM150.933 118.097C150.951 118.85 151.18 119.48 151.629 119.976L151.877 119.752C151.491 119.324 151.285 118.774 151.268 118.089L150.933 118.097ZM151.63 119.978C152.083 120.469 152.685 120.711 153.418 120.711V120.376C152.766 120.376 152.258 120.165 151.876 119.751L151.63 119.978ZM153.418 120.711C154.143 120.711 154.74 120.469 155.193 119.978L154.946 119.751C154.564 120.165 154.061 120.376 153.418 120.376V120.711ZM155.194 119.976C155.642 119.48 155.871 118.85 155.89 118.097L155.555 118.089C155.538 118.774 155.332 119.324 154.945 119.752L155.194 119.976ZM155.722 118.26H158.106V117.925H155.722V118.26ZM157.939 118.093C157.939 119.366 157.523 120.381 156.7 121.154L156.929 121.398C157.828 120.555 158.274 119.447 158.274 118.093H157.939ZM156.7 121.153C155.876 121.918 154.787 122.307 153.418 122.307V122.642C154.854 122.642 156.03 122.232 156.928 121.399L156.7 121.153ZM153.418 122.307C152.048 122.307 150.96 121.918 150.135 121.153L149.907 121.399C150.806 122.232 151.981 122.642 153.418 122.642V122.307ZM150.136 121.154C149.312 120.381 148.897 119.366 148.897 118.093H148.562C148.562 119.447 149.008 120.555 149.907 121.398L150.136 121.154ZM172.345 135.887V136.055H172.512V135.887H172.345ZM172.345 127.47H172.512V127.302H172.345V127.47ZM168.069 127.47V127.302H167.913L167.902 127.458L168.069 127.47ZM167.75 131.985L167.583 131.973L167.582 131.973L167.75 131.985ZM166.711 135.781L166.572 135.688L166.543 135.73V135.781H166.711ZM166.711 135.887H166.543V136.055H166.711V135.887ZM165.192 142.534V142.701H165.36V142.534H165.192ZM161.663 142.534H161.495V142.701H161.663V142.534ZM161.663 135.887V135.72H161.495V135.887H161.663ZM162.755 135.887V136.055H162.799L162.838 136.033L162.755 135.887ZM164.326 131.732L164.494 131.744L164.494 131.743L164.326 131.732ZM164.793 124.553V124.385H164.636L164.626 124.542L164.793 124.553ZM176.221 124.553H176.388V124.385H176.221V124.553ZM176.221 135.887H176.053V136.055H176.221V135.887ZM178.339 135.887H178.506V135.72H178.339V135.887ZM178.339 142.534V142.701H178.506V142.534H178.339ZM174.796 142.534H174.628V142.701H174.796V142.534ZM174.796 138.831H174.963V138.664H174.796V138.831ZM165.192 138.831V138.664H165.025V138.831H165.192ZM172.512 135.887V127.47H172.177V135.887H172.512ZM172.345 127.302H168.069V127.637H172.345V127.302ZM167.902 127.458L167.583 131.973L167.917 131.997L168.236 127.481L167.902 127.458ZM167.582 131.973C167.468 133.63 167.125 134.861 166.572 135.688L166.85 135.874C167.45 134.978 167.8 133.679 167.917 131.996L167.582 131.973ZM166.543 135.781V135.887H166.878V135.781H166.543ZM166.711 136.055H172.345V135.72H166.711V136.055ZM165.192 142.366H161.663V142.701H165.192V142.366ZM161.83 142.534V135.887H161.495V142.534H161.83ZM161.663 136.055H162.755V135.72H161.663V136.055ZM162.838 136.033C163.328 135.754 163.701 135.241 163.97 134.528C164.24 133.815 164.413 132.884 164.494 131.744L164.159 131.72C164.08 132.844 163.911 133.738 163.657 134.41C163.403 135.082 163.07 135.515 162.672 135.742L162.838 136.033ZM164.494 131.743L164.96 124.563L164.626 124.542L164.159 131.721L164.494 131.743ZM164.793 124.72H176.221V124.385H164.793V124.72ZM176.053 124.553V135.887H176.388V124.553H176.053ZM176.221 136.055H178.339V135.72H176.221V136.055ZM178.171 135.887V142.534H178.506V135.887H178.171ZM178.339 142.366H174.796V142.701H178.339V142.366ZM174.963 142.534V138.831H174.628V142.534H174.963ZM174.796 138.664H165.192V138.999H174.796V138.664ZM165.025 138.831V142.534H165.36V138.831H165.025ZM183.893 138.831V138.999H183.985L184.035 138.92L183.893 138.831ZM180.083 138.831H179.916V138.999H180.083V138.831ZM180.083 124.553V124.385H179.916V124.553H180.083ZM183.893 124.553H184.06V124.385H183.893V124.553ZM183.893 133.477H183.725V133.644H183.893V133.477ZM183.999 133.477V133.644H184.091L184.141 133.567L183.999 133.477ZM189.673 124.553V124.385H189.581L189.532 124.463L189.673 124.553ZM193.483 124.553H193.65V124.385H193.483V124.553ZM193.483 138.831V138.999H193.65V138.831H193.483ZM189.673 138.831H189.506V138.999H189.673V138.831ZM189.673 129.8H189.841V129.633H189.673V129.8ZM189.567 129.8V129.633H189.474L189.425 129.711L189.567 129.8ZM183.893 138.664H180.083V138.999H183.893V138.664ZM180.251 138.831V124.553H179.916V138.831H180.251ZM180.083 124.72H183.893V124.385H180.083V124.72ZM183.725 124.553V133.477H184.06V124.553H183.725ZM183.893 133.644H183.999V133.309H183.893V133.644ZM184.141 133.567L189.815 124.642L189.532 124.463L183.858 133.387L184.141 133.567ZM189.673 124.72H193.483V124.385H189.673V124.72ZM193.315 124.553V138.831H193.65V124.553H193.315ZM193.483 138.664H189.673V138.999H193.483V138.664ZM189.841 138.831V129.8H189.506V138.831H189.841ZM189.673 129.633H189.567V129.968H189.673V129.633ZM189.425 129.711L183.751 138.742L184.035 138.92L189.709 129.89L189.425 129.711ZM214.341 138.831V138.999H214.509V138.831H214.341ZM210.465 138.831H210.298V138.999H210.465V138.831ZM210.465 132.891H210.633V132.723H210.465V132.891ZM210.319 132.891V132.723H210.245L210.196 132.777L210.319 132.891ZM202.82 132.904L202.7 133.021L202.701 133.022L202.82 132.904ZM201.421 124.553V124.385H201.254V124.553H201.421ZM205.297 124.553H205.465V124.385H205.297V124.553ZM205.95 130.4L205.828 130.515L205.829 130.516L205.95 130.4ZM210.465 129.96L210.598 130.062L210.633 130.017V129.96H210.465ZM210.465 124.553V124.385H210.298V124.553H210.465ZM214.341 124.553H214.509V124.385H214.341V124.553ZM214.341 138.664H210.465V138.999H214.341V138.664ZM210.633 138.831V132.891H210.298V138.831H210.633ZM210.465 132.723H210.319V133.058H210.465V132.723ZM210.196 132.777C209.355 133.686 208.182 134.148 206.656 134.148V134.483C208.255 134.483 209.524 133.996 210.441 133.004L210.196 132.777ZM206.656 134.148C205.065 134.148 203.833 133.689 202.939 132.786L202.701 133.022C203.671 134.002 204.997 134.483 206.656 134.483V134.148ZM202.939 132.787C202.044 131.874 201.589 130.633 201.589 129.041H201.254C201.254 130.7 201.731 132.033 202.7 133.021L202.939 132.787ZM201.589 129.041V124.553H201.254V129.041H201.589ZM201.421 124.72H205.297V124.385H201.421V124.72ZM205.13 124.553V128.482H205.465V124.553H205.13ZM205.13 128.482C205.13 129.329 205.356 130.014 205.828 130.515L206.072 130.285C205.674 129.862 205.465 129.269 205.465 128.482H205.13ZM205.829 130.516C206.311 131.018 206.972 131.26 207.788 131.26V130.925C207.041 130.925 206.476 130.706 206.071 130.284L205.829 130.516ZM207.788 131.26C209.032 131.26 209.981 130.869 210.598 130.062L210.332 129.859C209.795 130.561 208.959 130.925 207.788 130.925V131.26ZM210.633 129.96V124.553H210.298V129.96H210.633ZM210.465 124.72H214.341V124.385H210.465V124.72ZM214.174 124.553V138.831H214.509V124.553H214.174ZM220.947 138.831V138.999H221.04L221.089 138.92L220.947 138.831ZM217.138 138.831H216.971V138.999H217.138V138.831ZM217.138 124.553V124.385H216.971V124.553H217.138ZM220.947 124.553H221.115V124.385H220.947V124.553ZM220.947 133.477H220.78V133.644H220.947V133.477ZM221.054 133.477V133.644H221.146L221.195 133.567L221.054 133.477ZM226.728 124.553V124.385H226.636L226.587 124.463L226.728 124.553ZM230.537 124.553H230.705V124.385H230.537V124.553ZM230.537 138.831V138.999H230.705V138.831H230.537ZM226.728 138.831H226.561V138.999H226.728V138.831ZM226.728 129.8H226.896V129.633H226.728V129.8ZM226.622 129.8V129.633H226.529L226.48 129.711L226.622 129.8ZM220.947 138.664H217.138V138.999H220.947V138.664ZM217.306 138.831V124.553H216.971V138.831H217.306ZM217.138 124.72H220.947V124.385H217.138V124.72ZM220.78 124.553V133.477H221.115V124.553H220.78ZM220.947 133.644H221.054V133.309H220.947V133.644ZM221.195 133.567L226.869 124.642L226.587 124.463L220.913 133.387L221.195 133.567ZM226.728 124.72H230.537V124.385H226.728V124.72ZM230.37 124.553V138.831H230.705V124.553H230.37ZM230.537 138.664H226.728V138.999H230.537V138.664ZM226.896 138.831V129.8H226.561V138.831H226.896ZM226.728 129.633H226.622V129.968H226.728V129.633ZM226.48 129.711L220.806 138.742L221.089 138.92L226.763 129.89L226.48 129.711ZM246.188 129.428V129.595H246.378L246.354 129.406L246.188 129.428ZM242.552 129.428L242.39 129.47L242.422 129.595H242.552V129.428ZM241.593 127.882L241.486 128.011L241.487 128.013L241.593 127.882ZM237.543 128.469L237.407 128.371L237.407 128.372L237.543 128.469ZM237.543 134.928L237.407 135.025L237.408 135.027L237.543 134.928ZM242.578 133.956V133.789H242.447L242.416 133.916L242.578 133.956ZM246.201 133.956L246.368 133.975L246.388 133.789H246.201V133.956ZM234.68 137.139L234.558 137.254L234.558 137.255L234.68 137.139ZM234.68 126.257L234.558 126.143L234.557 126.143L234.68 126.257ZM244.177 125.685L244.069 125.813L244.069 125.813L244.177 125.685ZM246.188 129.26H242.552V129.595H246.188V129.26ZM242.714 129.385C242.537 128.706 242.199 128.159 241.698 127.752L241.487 128.013C241.927 128.369 242.229 128.852 242.39 129.47L242.714 129.385ZM241.7 127.754C241.194 127.334 240.564 127.129 239.821 127.129V127.464C240.499 127.464 241.05 127.65 241.486 128.011L241.7 127.754ZM239.821 127.129C238.808 127.129 237.998 127.546 237.407 128.371L237.68 128.566C238.208 127.828 238.916 127.464 239.821 127.464V127.129ZM237.407 128.372C236.829 129.191 236.55 130.299 236.55 131.679H236.885C236.885 130.34 237.157 129.309 237.68 128.565L237.407 128.372ZM236.55 131.679C236.55 133.083 236.829 134.205 237.407 135.025L237.68 134.832C237.157 134.089 236.885 133.044 236.885 131.679H236.55ZM237.408 135.027C237.999 135.843 238.814 136.255 239.834 136.255V135.92C238.919 135.92 238.207 135.558 237.679 134.83L237.408 135.027ZM239.834 136.255C240.584 136.255 241.218 136.06 241.723 135.659L241.515 135.397C241.08 135.742 240.524 135.92 239.834 135.92V136.255ZM241.723 135.659C242.227 135.26 242.565 134.702 242.741 133.997L242.416 133.916C242.255 134.56 241.952 135.05 241.515 135.397L241.723 135.659ZM242.578 134.124H246.201V133.789H242.578V134.124ZM246.035 133.938C245.862 135.487 245.219 136.707 244.111 137.609L244.322 137.869C245.505 136.906 246.186 135.604 246.368 133.975L246.035 133.938ZM244.111 137.609C243.001 138.512 241.567 138.97 239.794 138.97V139.305C241.627 139.305 243.141 138.83 244.322 137.869L244.111 137.609ZM239.794 138.97C237.683 138.97 236.025 138.317 234.801 137.024L234.558 137.255C235.856 138.626 237.608 139.305 239.794 139.305V138.97ZM234.802 137.025C233.586 135.731 232.969 133.956 232.969 131.679H232.634C232.634 134.018 233.269 135.884 234.558 137.254L234.802 137.025ZM232.969 131.679C232.969 129.437 233.586 127.675 234.802 126.372L234.557 126.143C233.27 127.522 232.634 129.374 232.634 131.679H232.969ZM234.802 126.372C236.026 125.07 237.675 124.414 239.768 124.414V124.079C237.598 124.079 235.855 124.763 234.558 126.143L234.802 126.372ZM239.768 124.414C241.54 124.414 242.968 124.884 244.069 125.813L244.285 125.557C243.112 124.567 241.601 124.079 239.768 124.079V124.414ZM244.069 125.813C245.181 126.744 245.831 127.953 246.022 129.449L246.354 129.406C246.154 127.83 245.463 126.544 244.284 125.556L244.069 125.813ZM253.487 131.985L253.32 131.974L253.32 131.975L253.487 131.985ZM253.101 134.888L253.264 134.927L253.264 134.927L253.101 134.888ZM250.756 138.525L250.834 138.673L250.835 138.673L250.756 138.525ZM247.307 138.818H247.139V138.931L247.244 138.973L247.307 138.818ZM247.307 135.541L247.347 135.379L247.139 135.327V135.541H247.307ZM249.504 134.622L249.35 134.557L249.349 134.559L249.504 134.622ZM250.037 131.732L250.204 131.741V131.741L250.037 131.732ZM250.437 124.553V124.385H250.278L250.269 124.543L250.437 124.553ZM261.265 124.553H261.433V124.385H261.265V124.553ZM261.265 138.831V138.999H261.433V138.831H261.265ZM257.389 138.831H257.222V138.999H257.389V138.831ZM257.389 127.483H257.557V127.315H257.389V127.483ZM253.767 127.483V127.315H253.609L253.599 127.472L253.767 127.483ZM253.32 131.975C253.258 133.078 253.13 134.036 252.938 134.85L253.264 134.927C253.462 134.089 253.592 133.111 253.654 131.994L253.32 131.975ZM252.938 134.85C252.746 135.653 252.467 136.365 252.103 136.988L252.393 137.157C252.775 136.502 253.065 135.758 253.264 134.927L252.938 134.85ZM252.103 136.988C251.745 137.602 251.271 138.063 250.678 138.377L250.835 138.673C251.485 138.329 252.005 137.822 252.393 137.157L252.103 136.988ZM250.679 138.376C250.095 138.681 249.386 138.837 248.545 138.837V139.172C249.427 139.172 250.192 139.008 250.834 138.673L250.679 138.376ZM248.545 138.837C248.041 138.837 247.652 138.776 247.369 138.662L247.244 138.973C247.583 139.109 248.019 139.172 248.545 139.172V138.837ZM247.474 138.818V135.541H247.139V138.818H247.474ZM247.266 135.704C247.53 135.77 247.824 135.802 248.146 135.802V135.467C247.846 135.467 247.58 135.437 247.347 135.379L247.266 135.704ZM248.146 135.802C248.493 135.802 248.8 135.708 249.058 135.516C249.315 135.324 249.514 135.043 249.659 134.685L249.349 134.559C249.22 134.876 249.054 135.101 248.858 135.247C248.664 135.392 248.429 135.467 248.146 135.467V135.802ZM249.659 134.687C249.954 133.986 250.133 133.001 250.204 131.741L249.87 131.722C249.799 132.967 249.623 133.908 249.35 134.557L249.659 134.687ZM250.204 131.741L250.604 124.562L250.269 124.543L249.87 131.722L250.204 131.741ZM250.437 124.72H261.265V124.385H250.437V124.72ZM261.098 124.553V138.831H261.433V124.553H261.098ZM261.265 138.664H257.389V138.999H261.265V138.664ZM257.557 138.831V127.483H257.222V138.831H257.557ZM257.389 127.315H253.767V127.65H257.389V127.315ZM253.599 127.472L253.32 131.974L253.654 131.995L253.934 127.493L253.599 127.472ZM275.797 137.166L275.917 137.283L275.918 137.282L275.797 137.166ZM265.474 126.244L265.354 126.128L265.354 126.128L265.474 126.244ZM275.784 126.244L275.663 126.36L275.663 126.361L275.784 126.244ZM272.907 134.995L273.043 135.093L272.907 134.995ZM268.338 128.402L268.202 128.304L268.201 128.305L268.338 128.402ZM268.338 134.995L268.202 135.093L268.338 134.995ZM275.676 137.05C274.444 138.325 272.768 138.97 270.629 138.97V139.305C272.841 139.305 274.61 138.636 275.917 137.283L275.676 137.05ZM270.629 138.97C268.49 138.97 266.814 138.321 265.582 137.037L265.34 137.269C266.647 138.631 268.417 139.305 270.629 139.305V138.97ZM265.582 137.037C264.35 135.753 263.724 133.974 263.724 131.679H263.389C263.389 134.036 264.033 135.907 265.34 137.269L265.582 137.037ZM263.724 131.679C263.724 129.411 264.353 127.645 265.595 126.361L265.354 126.128C264.038 127.489 263.389 129.347 263.389 131.679H263.724ZM265.595 126.361C266.846 125.067 268.518 124.414 270.629 124.414V124.079C268.443 124.079 266.678 124.758 265.354 126.128L265.595 126.361ZM270.629 124.414C272.749 124.414 274.421 125.067 275.663 126.36L275.904 126.128C274.589 124.758 272.824 124.079 270.629 124.079V124.414ZM275.663 126.361C276.905 127.645 277.534 129.411 277.534 131.679H277.869C277.869 129.347 277.22 127.489 275.904 126.128L275.663 126.361ZM277.534 131.679C277.534 133.983 276.908 135.766 275.676 137.05L275.918 137.282C277.225 135.92 277.869 134.045 277.869 131.679H277.534ZM270.629 136.335C271.642 136.335 272.452 135.918 273.043 135.093L272.77 134.898C272.242 135.635 271.534 136 270.629 136V136.335ZM273.043 135.093C273.63 134.272 273.913 133.132 273.913 131.692H273.578C273.578 133.094 273.302 134.155 272.77 134.898L273.043 135.093ZM273.913 131.692C273.913 130.269 273.63 129.134 273.043 128.305L272.77 128.499C273.302 129.251 273.578 130.309 273.578 131.692H273.913ZM273.043 128.305C272.453 127.471 271.643 127.049 270.629 127.049V127.384C271.533 127.384 272.242 127.752 272.77 128.499L273.043 128.305ZM270.629 127.049C269.615 127.049 268.801 127.471 268.202 128.304L268.474 128.5C269.011 127.752 269.725 127.384 270.629 127.384V127.049ZM268.201 128.305C267.615 129.134 267.331 130.269 267.331 131.692H267.666C267.666 130.309 267.943 129.251 268.475 128.499L268.201 128.305ZM267.331 131.692C267.331 133.132 267.614 134.272 268.202 135.093L268.474 134.898C267.943 134.155 267.666 133.094 267.666 131.692H267.331ZM268.202 135.093C268.793 135.918 269.608 136.335 270.629 136.335V136C269.715 136 269.002 135.635 268.474 134.898L268.202 135.093Z" fill="#008991"/>
<path d="M172.293 204.71L187.458 175.478V175.332H169.534V169.471H194.736V175.405L180.035 204.71H172.293ZM213.198 204.71V198.434H195.664V192.158C198.529 186.687 203.242 179.125 209.803 169.471H220.207V192.524H224.798V198.434H220.207V204.71H213.198ZM202.135 192.548V192.744H213.344V174.697H213.198C210.479 178.669 208.298 181.982 206.653 184.636C205.009 187.273 203.503 189.911 202.135 192.548Z" fill="white"/>
<path d="M172.293 204.71L172.021 204.568L171.788 205.017H172.293V204.71ZM187.458 175.478L187.731 175.62L187.766 175.553V175.478H187.458ZM187.458 175.332H187.766V175.025H187.458V175.332ZM169.534 175.332H169.227V175.639H169.534V175.332ZM169.534 169.471V169.164H169.227V169.471H169.534ZM194.736 169.471H195.043V169.164H194.736V169.471ZM194.736 175.405L195.01 175.543L195.043 175.478V175.405H194.736ZM180.035 204.71V205.017H180.224L180.309 204.848L180.035 204.71ZM172.566 204.851L187.731 175.62L187.186 175.337L172.021 204.568L172.566 204.851ZM187.766 175.478V175.332H187.151V175.478H187.766ZM187.458 175.025H169.534V175.639H187.458V175.025ZM169.841 175.332V169.471H169.227V175.332H169.841ZM169.534 169.778H194.736V169.164H169.534V169.778ZM194.429 169.471V175.405H195.043V169.471H194.429ZM194.461 175.267L179.76 204.572L180.309 204.848L195.01 175.543L194.461 175.267ZM180.035 204.403H172.293V205.017H180.035V204.403ZM213.198 204.71H212.891V205.017H213.198V204.71ZM213.198 198.434H213.505V198.127H213.198V198.434ZM195.664 198.434H195.357V198.741H195.664V198.434ZM195.664 192.158L195.392 192.015L195.357 192.082V192.158H195.664ZM209.803 169.471V169.164H209.641L209.549 169.298L209.803 169.471ZM220.207 169.471H220.514V169.164H220.207V169.471ZM220.207 192.524H219.9V192.831H220.207V192.524ZM224.798 192.524H225.105V192.217H224.798V192.524ZM224.798 198.434V198.741H225.105V198.434H224.798ZM220.207 198.434V198.127H219.9V198.434H220.207ZM220.207 204.71V205.017H220.514V204.71H220.207ZM202.135 192.548L201.863 192.407L201.828 192.473V192.548H202.135ZM202.135 192.744H201.828V193.051H202.135V192.744ZM213.344 192.744V193.051H213.652V192.744H213.344ZM213.344 174.697H213.652V174.39H213.344V174.697ZM213.198 174.697V174.39H213.036L212.945 174.523L213.198 174.697ZM206.653 184.636L206.914 184.798L206.914 184.798L206.653 184.636ZM213.505 204.71V198.434H212.891V204.71H213.505ZM213.198 198.127H195.664V198.741H213.198V198.127ZM195.971 198.434V192.158H195.357V198.434H195.971ZM195.936 192.3C198.793 186.846 203.498 179.295 210.057 169.643L209.549 169.298C202.987 178.955 198.265 186.529 195.392 192.015L195.936 192.3ZM209.803 169.778H220.207V169.164H209.803V169.778ZM219.9 169.471V192.524H220.514V169.471H219.9ZM220.207 192.831H224.798V192.217H220.207V192.831ZM224.491 192.524V198.434H225.105V192.524H224.491ZM224.798 198.127H220.207V198.741H224.798V198.127ZM219.9 198.434V204.71H220.514V198.434H219.9ZM220.207 204.403H213.198V205.017H220.207V204.403ZM201.828 192.548V192.744H202.442V192.548H201.828ZM202.135 193.051H213.344V192.437H202.135V193.051ZM213.652 192.744V174.697H213.037V192.744H213.652ZM213.344 174.39H213.198V175.004H213.344V174.39ZM212.945 174.523C210.224 178.498 208.04 181.815 206.392 184.474L206.914 184.798C208.555 182.149 210.734 178.841 213.451 174.87L212.945 174.523ZM206.393 184.473C204.744 187.117 203.234 189.762 201.863 192.407L202.408 192.69C203.772 190.06 205.274 187.429 206.914 184.798L206.393 184.473Z" fill="#008991"/>
<rect x="147.308" y="247.601" width="103.429" height="34.4762" rx="2.79415" fill="#01B5EE"/>
<path d="M180.93 266.736H178.484V261.811H173.219V266.736H170.773V255.048H173.219V259.794H178.484V255.048H180.93V266.736ZM186.187 265.164C186.711 265.164 187.154 265.013 187.515 264.711C187.883 264.403 188.066 264.017 188.066 263.553V262.921L186.236 263.034C185.793 263.067 185.45 263.177 185.207 263.366C184.969 263.555 184.851 263.804 184.851 264.111C184.851 264.435 184.972 264.692 185.215 264.881C185.458 265.07 185.782 265.164 186.187 265.164ZM185.409 266.873C184.572 266.873 183.879 266.628 183.328 266.136C182.777 265.645 182.502 265.013 182.502 264.241C182.502 263.453 182.793 262.834 183.376 262.386C183.96 261.938 184.794 261.682 185.879 261.617L188.066 261.487V260.912C188.066 260.512 187.934 260.199 187.669 259.972C187.41 259.746 187.056 259.632 186.608 259.632C186.176 259.632 185.823 259.73 185.547 259.924C185.277 260.118 185.112 260.38 185.053 260.71H182.89C182.934 259.856 183.298 259.171 183.984 258.652C184.67 258.128 185.58 257.867 186.713 257.867C187.826 257.867 188.717 258.131 189.386 258.66C190.056 259.19 190.391 259.892 190.391 260.766V266.736H188.107V265.407H188.058C187.82 265.861 187.459 266.22 186.973 266.485C186.487 266.744 185.966 266.873 185.409 266.873ZM199.762 266.736H197.405V263.123H197.316C196.781 263.701 196.039 263.99 195.089 263.99C194.1 263.99 193.323 263.704 192.756 263.131C192.189 262.554 191.905 261.771 191.905 260.782V258.053H194.262V260.442C194.262 260.939 194.395 261.328 194.659 261.609C194.929 261.889 195.302 262.03 195.777 262.03C196.511 262.03 197.054 261.8 197.405 261.341V258.053H199.762V266.736ZM204.816 265.164C205.34 265.164 205.783 265.013 206.145 264.711C206.512 264.403 206.695 264.017 206.695 263.553V262.921L204.865 263.034C204.422 263.067 204.079 263.177 203.836 263.366C203.599 263.555 203.48 263.804 203.48 264.111C203.48 264.435 203.601 264.692 203.844 264.881C204.087 265.07 204.411 265.164 204.816 265.164ZM204.039 266.873C203.202 266.873 202.508 266.628 201.957 266.136C201.406 265.645 201.131 265.013 201.131 264.241C201.131 263.453 201.422 262.834 202.006 262.386C202.589 261.938 203.423 261.682 204.508 261.617L206.695 261.487V260.912C206.695 260.512 206.563 260.199 206.298 259.972C206.039 259.746 205.686 259.632 205.237 259.632C204.805 259.632 204.452 259.73 204.176 259.924C203.906 260.118 203.742 260.38 203.682 260.71H201.52C201.563 259.856 201.927 259.171 202.613 258.652C203.299 258.128 204.209 257.867 205.343 257.867C206.455 257.867 207.346 258.131 208.016 258.66C208.685 259.19 209.02 259.892 209.02 260.766V266.736H206.736V265.407H206.687C206.45 265.861 206.088 266.22 205.602 266.485C205.116 266.744 204.595 266.873 204.039 266.873ZM217.654 258.053V259.835H215.07V266.736H212.713V259.835H210.122V258.053H217.654ZM222.522 262.305H221.218V264.97H222.522C222.949 264.97 223.289 264.848 223.543 264.606C223.802 264.357 223.931 264.033 223.931 263.634C223.931 263.234 223.802 262.913 223.543 262.67C223.289 262.427 222.949 262.305 222.522 262.305ZM218.861 266.736V258.053H221.218V260.564H222.911C223.937 260.564 224.752 260.842 225.357 261.398C225.967 261.954 226.272 262.705 226.272 263.65C226.272 264.595 225.967 265.345 225.357 265.901C224.752 266.458 223.937 266.736 222.911 266.736H218.861Z" fill="white"/>
<path d="M244.89 437.049C245.881 436.613 246.363 435.482 245.992 434.464L193 289.369C191.947 286.486 191.829 283.344 192.664 280.39L192.896 279.568C193.476 277.513 194.614 275.658 196.183 274.209C197.238 273.235 198.465 272.466 199.8 271.941L201.276 271.361C202.262 270.973 203.284 270.684 204.327 270.497L205.567 270.275C207.433 269.94 209.353 270.085 211.148 270.695C212.342 271.101 213.459 271.705 214.452 272.483L214.671 272.655C216.41 274.017 217.769 275.805 218.615 277.845L250.171 353.918L253.284 365.415L250.454 358.217C249.466 355.705 249.077 352.998 249.317 350.309L249.329 350.168C249.487 348.4 249.929 346.669 250.637 345.042C251.608 342.813 253.059 340.826 254.886 339.222L255.021 339.104C256.81 337.535 258.914 336.365 261.191 335.673C263.369 335.012 265.66 334.802 267.922 335.057L269.875 335.277L271.739 335.745C273.61 336.213 275.363 337.062 276.891 338.238C277.944 339.048 278.877 340.003 279.662 341.075L280.192 341.798C281.224 343.209 282.071 344.746 282.71 346.373L283.602 348.64L283.748 345.605C283.848 343.533 284.324 341.497 285.152 339.595L285.564 338.65C286.249 337.077 287.256 335.666 288.521 334.507C289.168 333.914 289.877 333.392 290.635 332.95L290.853 332.823C292.075 332.112 293.392 331.582 294.766 331.249L297.447 330.6C299.576 330.085 301.808 330.185 303.882 330.89C304.788 331.198 305.653 331.618 306.456 332.139L307.192 332.617C308.597 333.529 309.867 334.635 310.964 335.901C312.072 337.18 312.992 338.61 313.698 340.148L314.751 342.443L315.035 339.264C315.18 337.636 315.641 336.052 316.392 334.6C317.447 332.56 319.041 330.847 321 329.648L321.16 329.549C321.819 329.146 322.512 328.801 323.231 328.518L323.794 328.297C325.474 327.637 327.277 327.352 329.078 327.464L329.154 327.469C330.375 327.545 331.576 327.809 332.716 328.252C334.632 328.997 336.321 330.227 337.618 331.822L338.56 332.98C339.345 333.946 340.024 334.992 340.587 336.101L349.151 352.978L369.222 404.022L378.336 427.2C380.507 432.722 381.689 438.611 381.827 444.544L381.147 453.586L378.752 469.415C378.503 471.058 378.692 472.738 379.301 474.285L384.04 486.337L364.647 493.962L338.18 504.37L303.85 517.868L297.751 502.357C297.185 500.919 295.925 499.87 294.408 499.575L268.012 494.441L234.721 485.979C231.372 485.127 227.954 484.573 224.508 484.323L199.163 482.481L178.664 482.674L175.096 482.984C172.363 483.221 169.673 482.183 167.808 480.171C166.651 478.923 165.876 477.37 165.576 475.694L165.024 472.614C164.688 470.739 164.677 468.819 164.992 466.94L165.008 466.843C165.222 465.567 165.591 464.322 166.107 463.136C167.061 460.947 168.497 459.003 170.308 457.448L170.551 457.239C172.012 455.985 173.674 454.984 175.466 454.279L177.221 453.589C179.132 452.838 181.119 452.296 183.147 451.973L196.897 449.786L215.096 448.145C218.912 447.801 222.648 446.838 226.155 445.295L244.89 437.049Z" fill="#F3B693"/>
<rect x="320.701" y="586.886" width="70.397" height="109.256" rx="2" transform="rotate(-111.465 320.701 586.886)" fill="#2B439A"/>
<path d="M204.622 298.246C203.48 297.909 202.557 297.064 202.121 295.956L199.133 288.356C198.437 286.586 198.203 284.669 198.455 282.784L198.684 281.726C198.955 280.473 199.577 279.322 200.477 278.409C200.855 278.026 201.277 277.688 201.735 277.405L202.178 277.131C203.198 276.499 204.341 276.063 205.522 275.852C206.2 275.73 206.896 275.683 207.585 275.713L207.979 275.73C208.865 275.769 209.737 275.97 210.55 276.325C211.425 276.706 212.216 277.256 212.877 277.944L213.678 278.779C214.856 280.005 215.782 281.449 216.404 283.031L220.004 292.188C220.17 292.61 219.962 293.087 219.54 293.253L211.657 296.353L207.123 298.135C206.325 298.449 205.445 298.488 204.622 298.246Z" fill="#FFD6B7"/>
<path d="M174.585 483.701C172.95 483.787 171.564 482.512 171.514 480.875L171.459 479.086C171.453 478.869 171.478 478.653 171.536 478.445C171.717 477.788 172.196 477.255 172.83 477.006L175.918 475.792C176.678 475.493 177.477 475.301 178.291 475.223L183.186 474.75L188.734 474.606C189.424 474.588 190.113 474.679 190.774 474.876L191.467 475.081C193.991 475.831 195.824 478.013 196.126 480.627L196.197 481.246C196.279 481.952 195.748 482.58 195.038 482.618L174.585 483.701Z" fill="#FFD6B7"/>
<defs>
<filter id="filter0_b_27_486" x="-2.28612" y="98.0082" width="399.481" height="198.892" filterUnits="userSpaceOnUse" color-interpolation-filters="sRGB">
<feFlood flood-opacity="0" result="BackgroundImageFix"/>
<feGaussianBlur in="BackgroundImageFix" stdDeviation="1.14306"/>
<feComposite in2="SourceAlpha" operator="in" result="effect1_backgroundBlur_27_486"/>
<feBlend mode="normal" in="SourceGraphic" in2="effect1_backgroundBlur_27_486" result="shape"/>
</filter>
<filter id="filter1_b_27_486" x="-2.28612" y="98.0081" width="399.481" height="198.892" filterUnits="userSpaceOnUse" color-interpolation-filters="sRGB">
<feFlood flood-opacity="0" result="BackgroundImageFix"/>
<feGaussianBlur in="BackgroundImageFix" stdDeviation="1.14306"/>
<feComposite in2="SourceAlpha" operator="in" result="effect1_backgroundBlur_27_486"/>
<feBlend mode="normal" in="SourceGraphic" in2="effect1_backgroundBlur_27_486" result="shape"/>
</filter>
<linearGradient id="paint0_linear_27_486" x1="197.454" y1="100.294" x2="197.454" y2="294.615" gradientUnits="userSpaceOnUse">
<stop stop-color="#9AFAFF"/>
<stop offset="1" stop-color="#00DAE6" stop-opacity="0"/>
</linearGradient>
<linearGradient id="paint1_linear_27_486" x1="592.363" y1="294.615" x2="592.363" y2="488.935" gradientUnits="userSpaceOnUse">
<stop stop-color="#9AFAFF"/>
<stop offset="1" stop-color="#00DAE6" stop-opacity="0"/>
</linearGradient>
</defs>
</svg>
