<svg width="621" height="671" viewBox="0 0 621 671" fill="none" xmlns="http://www.w3.org/2000/svg">
<rect x="268.31" y="445.416" width="56.2654" height="8.47834" rx="3.08303" fill="url(#paint0_linear_16_606)"/>
<rect x="225.148" y="450.04" width="142.59" height="28.5181" rx="14.259" fill="#8D0599"/>
<path d="M41.4597 400.736L35.5335 407.201C35.0427 407.737 34.7704 408.437 34.7704 409.163C34.7704 409.921 35.0672 410.65 35.5972 411.192L51.3417 427.303L92.1919 463.143L172.736 519.794L52.551 397.319C51.7775 396.531 50.7195 396.087 49.6151 396.087C48.9765 396.087 48.3467 396.236 47.7755 396.521L45.6167 397.601C44.0513 398.383 42.6424 399.446 41.4597 400.736Z" fill="#CD9677"/>
<path d="M250.968 511.701L327.273 577.6L254.437 565.654L218.211 557.946L211.66 556.019L207.806 552.551L170.809 518.637L49.0294 404.18L48.644 402.253L48.7203 401.871C49.1808 399.569 49.9806 397.348 51.0936 395.281C51.7715 394.022 52.5618 392.827 53.4549 391.711L55.1955 389.535L56.3706 388.36C58.3856 386.345 60.8421 384.827 63.5456 383.926L63.9951 383.776C65.5691 383.251 67.2173 382.984 68.8765 382.984C70.5356 382.984 72.1839 383.251 73.7578 383.776L76.7414 384.771C79.3252 385.632 81.7991 386.793 84.1122 388.231L94.8896 394.931L115.315 410.731C123.497 418.658 132.73 425.423 142.755 430.836L166.185 443.488V445.03L153.082 467.767L171.195 491.661L218.211 499.368L250.968 511.701Z" fill="#DFA684"/>
<path d="M418.608 511.315L443.658 539.448L444.429 540.604L376.216 608.816L375.831 608.046L361.957 591.474L356.562 585.308L353.094 582.611L344.615 580.298L328.815 577.986L324.961 577.215L275.247 534.053L249.427 512.086L236.709 509.774L215.128 506.305C206.778 504.25 190.001 500.139 189.693 500.139C189.453 500.139 181.234 496.861 174.458 494.137C171.007 492.75 167.725 490.978 164.667 488.861L163.21 487.853C160.58 486.032 158.199 483.875 156.127 481.438C153.852 478.761 151.938 475.785 150.614 472.531C150.046 471.136 149.613 469.977 149.613 469.694V466.054C149.613 462.856 150.197 459.684 151.335 456.696L151.374 456.595C152.251 454.293 153.457 452.129 154.953 450.172L155.707 449.187C157.029 447.457 158.647 445.973 160.484 444.804L161.159 444.375C161.682 444.042 162.235 443.758 162.811 443.528C163.516 443.246 164.251 443.045 165.002 442.93L169.878 442.179C172.55 441.768 175.25 441.562 177.953 441.562H179.556C185.012 441.562 190.453 442.165 195.777 443.36L206.65 445.801L230.928 453.509L235.057 454.947C249.226 459.885 263.851 463.405 278.715 465.455H324.576L339.795 466.706C348.386 467.412 356.896 468.893 365.221 471.129L373.055 473.234C376.696 474.212 380.234 475.537 383.622 477.192C391.186 480.886 397.871 486.158 403.225 492.654L418.608 511.315Z" fill="#F3B693"/>
<path d="M206.141 468.263C206.963 465.776 207.445 462.86 206.264 460.831C204.615 457.996 201.285 456.691 198.288 455.359L195.859 454.279L194.843 453.873C191.676 452.606 188.381 451.684 185.016 451.123L181.668 450.565C179.577 450.217 177.449 450.159 175.342 450.393L174.877 450.444C172.694 450.687 170.565 451.285 168.574 452.214C166.735 453.072 165.036 454.203 163.534 455.568L162.653 456.369C161.927 457.029 161.276 457.768 160.713 458.572L160.616 458.712C159.464 460.357 158.724 462.255 158.459 464.246C158.217 466.058 158.374 467.901 158.919 469.645L159.133 470.329C159.718 472.202 160.648 473.949 161.873 475.481L162.445 476.196C163.9 478.015 165.652 479.574 167.627 480.808L168.507 481.358C170.038 482.315 171.662 483.115 173.354 483.744L185.116 488.121C186.622 488.681 188.18 489.09 189.767 489.34L192.99 489.849C194.118 490.027 195.27 489.949 196.363 489.621L196.908 489.458C197.983 489.135 198.94 488.503 199.659 487.641C200.202 486.989 200.593 486.225 200.804 485.403L202.613 478.369C203.501 474.915 205.022 471.649 206.141 468.263Z" fill="#FFC8A0"/>
<path d="M48.8736 400.122L48.7476 400.258C48.236 400.812 47.9651 401.545 47.9945 402.298C48.023 403.027 48.3303 403.716 48.853 404.224L63.6743 418.634L65.9083 420.353C67.053 421.233 68.7229 420.569 68.9506 419.143C69.027 418.665 69.056 418.18 69.0371 417.696L69.0203 417.267C68.9418 415.259 68.2708 413.32 67.0917 411.692C66.6678 411.107 66.1827 410.569 65.6447 410.087L54.5415 400.131C53.7225 399.397 52.6498 399.01 51.5506 399.053L51.1602 399.069C50.2885 399.103 49.466 399.482 48.8736 400.122Z" fill="#E2B498"/>
<path d="M34.9051 407.899L34.2889 408.515C34.1037 408.7 33.9996 408.951 33.9996 409.213C33.9996 409.447 34.0824 409.673 34.2333 409.851L38.2388 414.585L49.8002 426.146L52.5484 428.472C53.5764 429.342 55.1607 428.808 55.4528 427.493C55.536 427.119 55.4968 426.728 55.3411 426.378L54.3941 424.247C54.1582 423.716 53.8707 423.21 53.5357 422.735L51.9079 420.429C50.2513 418.082 48.3307 415.934 46.1837 414.025L39.0096 407.648L38.8061 407.513C37.5799 406.695 35.9472 406.857 34.9051 407.899Z" fill="#E3B599"/>
<rect x="452.817" y="522.491" width="79.1847" height="132.521" rx="6" transform="rotate(46.8233 452.817 522.491)" fill="#2B439A"/>
<path d="M26.823 155.492C14.0348 140.659 7 121.727 7 102.143V29.9766C7 15.0778 19.0778 3 33.9766 3L593.523 3.00006C608.422 3.00006 620.5 15.0779 620.5 29.9766V99.6497C620.5 120.73 612.352 140.994 597.759 156.207L320.336 445.416H276.789L26.823 155.492Z" fill="url(#paint1_linear_16_606)"/>
<g opacity="0.5" filter="url(#filter0_b_16_606)">
<path d="M32.9936 163.585C22.2481 151.151 15.5018 135.766 13.6359 119.439L3.90135 34.2618C2.08318 18.3529 14.4424 4.37123 30.4543 4.22335L487.731 0L618.5 9.5V105.947C618.5 127.148 610.259 147.518 595.517 162.755L321 446.5H277.5L32.9936 163.585Z" fill="url(#paint2_diamond_16_606)" fill-opacity="0.5"/>
</g>
<rect x="436.716" y="179.298" width="65.5145" height="65.5145" rx="6.16607" transform="rotate(24.7402 436.716 179.298)" fill="url(#paint3_radial_16_606)"/>
<path d="M436.453 234.321L462.266 214.269L462.327 214.137L446.168 206.691L448.603 201.408L471.322 211.877L468.857 217.226L443.431 237.537L436.453 234.321Z" fill="white"/>
<rect x="467.381" y="61.3531" width="65.5145" height="65.5145" rx="6.16607" transform="rotate(-13.2109 467.381 61.3531)" fill="url(#paint4_radial_16_606)"/>
<path d="M502.534 88.8597L501.327 83.7154L505.456 82.746C507.077 82.3657 508.287 81.6168 509.087 80.4995C509.887 79.3822 510.122 78.1234 509.794 76.7233C509.465 75.3232 508.725 74.3267 507.573 73.734C506.418 73.1255 504.967 73.0262 503.221 73.4361C501.569 73.8239 500.337 74.5861 499.525 75.7229C498.713 76.8596 498.435 78.1863 498.692 79.703L492.132 81.243C491.515 78.0514 492.126 75.2439 493.964 72.8206C495.802 70.3973 498.561 68.7536 502.243 67.8895C505.798 67.0548 508.865 67.2146 511.443 68.3689C514.037 69.5194 515.653 71.4555 516.292 74.1771C516.776 76.2379 516.541 78.1355 515.587 79.87C514.633 81.6044 513.146 82.9078 511.127 83.7802L511.16 83.9218C513.776 83.5401 516.003 83.9053 517.841 85.0175C519.691 86.1103 520.891 87.8287 521.441 90.1727C522.154 93.209 521.479 95.9567 519.418 98.416C517.371 100.872 514.374 102.563 510.425 103.49C506.603 104.387 503.286 104.153 500.476 102.788C497.681 101.419 495.826 99.1736 494.911 96.0521L501.731 94.4512C502.18 95.8727 503.065 96.8849 504.385 97.488C505.721 98.0873 507.317 98.1691 509.174 97.7333C510.951 97.316 512.299 96.5182 513.218 95.3399C514.136 94.1616 514.428 92.8566 514.092 91.425C513.726 89.8676 512.889 88.7776 511.581 88.1552C510.269 87.517 508.654 87.4231 506.735 87.8737L502.534 88.8597Z" fill="white"/>
<rect x="90.3026" y="33.2661" width="65.5145" height="65.5145" rx="6.16607" transform="rotate(21.5239 90.3026 33.2661)" fill="url(#paint5_radial_16_606)"/>
<path d="M102.232 92.6421C98.7443 91.2666 96.2256 89.1963 94.6758 86.4311C93.147 83.6568 92.911 80.7757 93.9678 77.7879L100.259 80.269C99.9089 81.7291 100.114 83.1039 100.873 84.3936C101.647 85.6892 102.824 86.6482 104.402 87.2707C106.176 87.9703 107.839 87.9833 109.39 87.3096C110.962 86.6268 112.098 85.3985 112.797 83.6247C113.509 81.8208 113.534 80.1282 112.872 78.547C112.21 76.9658 111 75.8284 109.241 75.1348C108.008 74.6486 106.781 74.4775 105.561 74.6214C104.361 74.7563 103.292 75.1771 102.353 75.8838L96.265 73.4827L105.247 55.3987L125.947 63.5625L123.813 68.9742L108.457 62.918L104.2 71.5313L104.335 71.5846C105.451 70.739 106.756 70.2466 108.253 70.1073C109.765 69.9739 111.34 70.2304 112.979 70.8766C116.09 72.1038 118.24 74.1414 119.427 76.9894C120.635 79.8283 120.613 82.8336 119.362 86.0055C118.005 89.4479 115.737 91.7845 112.559 93.0151C109.402 94.2367 105.96 94.1124 102.232 92.6421Z" fill="white"/>
<rect x="314" y="142" width="65.5145" height="65.5145" rx="6.16607" fill="url(#paint6_radial_16_606)"/>
<path d="M346.033 192.083V163.82H345.888L336.968 169.977V163.384L346.009 157.106H353.281V192.083H346.033Z" fill="white"/>
<rect x="220" y="250.266" width="65.5145" height="65.5145" rx="6.16607" transform="rotate(-21.7395 220 250.266)" fill="url(#paint7_radial_16_606)"/>
<path d="M268.912 285.515C264.98 287.083 261.447 287.474 258.316 286.687C255.193 285.88 253.069 284.065 251.943 281.243C251.093 279.112 251.072 277.007 251.878 274.928C252.679 272.835 254.137 271.148 256.254 269.869L256.2 269.734C254.135 270.053 252.251 269.778 250.548 268.909C248.853 268.019 247.65 266.681 246.938 264.894C245.944 262.403 246.238 259.911 247.819 257.419C249.394 254.912 251.915 252.967 255.383 251.585C258.865 250.196 262.033 249.873 264.886 250.614C267.732 251.34 269.656 252.957 270.655 255.463C271.355 257.219 271.397 259.003 270.78 260.815C270.157 262.612 268.989 264.113 267.278 265.317L267.332 265.452C269.769 264.933 271.991 265.16 273.997 266.134C276.012 267.088 277.445 268.63 278.295 270.762C279.42 273.584 279.11 276.36 277.363 279.092C275.632 281.818 272.815 283.959 268.912 285.515ZM261.981 280.894C263.499 281.385 265.151 281.274 266.937 280.562C268.723 279.85 269.991 278.796 270.74 277.402C271.482 275.992 271.56 274.552 270.974 273.081C270.387 271.61 269.343 270.626 267.84 270.129C266.331 269.617 264.683 269.718 262.897 270.43C261.111 271.142 259.839 272.206 259.081 273.622C258.333 275.016 258.252 276.449 258.838 277.92C259.425 279.391 260.472 280.382 261.981 280.894ZM256.727 265.688C258.023 266.146 259.421 266.075 260.922 265.477C262.423 264.878 263.486 263.967 264.112 262.743C264.731 261.505 264.784 260.24 264.269 258.949C263.748 257.643 262.84 256.762 261.544 256.304C260.242 255.832 258.841 255.895 257.34 256.493C255.839 257.092 254.779 258.01 254.159 259.249C253.534 260.472 253.481 261.737 254.002 263.043C254.523 264.349 255.431 265.231 256.727 265.688Z" fill="white"/>
<rect x="118" y="188.765" width="65.5145" height="65.5145" rx="6.16607" transform="rotate(-44.3101 118 188.765)" fill="url(#paint8_radial_16_606)"/>
<path d="M178.821 199.381L174.47 194.924L162.016 207.081L157.665 202.623C155.907 196.751 154.011 188.113 151.977 176.707L159.366 169.494L175.35 185.867L178.611 182.684L182.708 186.881L179.448 190.064L183.799 194.522L178.821 199.381ZM162.532 198.414L162.667 198.553L170.629 190.781L158.116 177.963L158.012 178.065C158.835 182.771 159.583 186.637 160.255 189.662C160.915 192.675 161.675 195.592 162.532 198.414Z" fill="white"/>
<rect x="282.043" y="36.5743" width="65.5145" height="65.5145" rx="6.16607" transform="rotate(12.7592 282.043 36.5743)" fill="url(#paint9_radial_16_606)"/>
<path d="M303.514 93.6074C301.055 93.0506 298.97 92.0151 297.258 90.5009C295.566 88.9745 294.351 87.0591 293.614 84.7548C292.367 81.4073 292.265 77.4326 293.307 72.8305C294.581 67.2041 296.859 63.0724 300.14 60.4355C303.425 57.7828 307.281 56.9578 311.71 57.9607C314.957 58.6959 317.54 60.2005 319.461 62.4745C321.382 64.7485 322.262 67.3338 322.104 70.2305L315.082 68.6405C314.993 67.4273 314.522 66.3597 313.67 65.4379C312.819 64.516 311.723 63.9034 310.383 63.6C307.988 63.0576 305.874 63.7221 304.042 65.5937C302.225 67.4688 300.923 70.3302 300.135 74.1778L300.276 74.2099C301.352 72.6806 302.807 71.5936 304.643 70.949C306.479 70.3044 308.469 70.2247 310.612 70.7101C313.859 71.4453 316.304 73.1255 317.946 75.7506C319.607 78.3637 320.072 81.2856 319.341 84.5165C318.545 88.031 316.661 90.6446 313.688 92.3574C310.719 94.0544 307.328 94.471 303.514 93.6074ZM304.733 87.894C306.467 88.2865 308.066 88.0274 309.532 87.1166C311.016 86.1937 311.953 84.8732 312.342 83.1554C312.742 81.3902 312.481 79.7985 311.56 78.3804C310.654 76.9658 309.311 76.0568 307.53 75.6536C305.749 75.2503 304.129 75.4883 302.671 76.3675C301.228 77.2504 300.312 78.5507 299.923 80.2686C299.531 82.0022 299.796 83.6114 300.719 85.0962C301.646 86.5652 302.984 87.4978 304.733 87.894Z" fill="white"/>
<rect x="300.136" y="322.423" width="65.5145" height="65.5145" rx="6.16607" transform="rotate(17.0095 300.136 322.423)" fill="url(#paint10_radial_16_606)"/>
<path d="M311.562 352.716C312.531 349.549 314.466 347.31 317.368 346.001C320.289 344.681 323.574 344.579 327.22 345.694C330.728 346.767 333.308 348.554 334.96 351.053C336.616 353.537 337.015 356.185 336.154 358.997C335.847 360.002 335.395 360.928 334.797 361.776C334.22 362.613 333.455 363.402 332.502 364.141C331.57 364.87 330.655 365.511 329.759 366.065C328.868 366.603 327.726 367.243 326.333 367.983L315.771 373.344L315.728 373.483L330.818 378.099L329.116 383.662L304.801 376.224L306.241 371.519L322.566 363.231C324.785 362.051 326.363 361.038 327.297 360.192C328.248 359.35 328.9 358.35 329.255 357.191C329.642 355.924 329.466 354.704 328.727 353.531C327.987 352.359 326.852 351.538 325.322 351.07C323.7 350.574 322.199 350.673 320.821 351.366C319.448 352.045 318.525 353.156 318.052 354.702L318.016 354.818L311.526 352.832L311.562 352.716Z" fill="white"/>
<defs>
<filter id="filter0_b_16_606" x="-36.3558" y="-40.0794" width="694.935" height="526.659" filterUnits="userSpaceOnUse" color-interpolation-filters="sRGB">
<feFlood flood-opacity="0" result="BackgroundImageFix"/>
<feGaussianBlur in="BackgroundImageFix" stdDeviation="20.0397"/>
<feComposite in2="SourceAlpha" operator="in" result="effect1_backgroundBlur_16_606"/>
<feBlend mode="normal" in="SourceGraphic" in2="effect1_backgroundBlur_16_606" result="shape"/>
</filter>
<linearGradient id="paint0_linear_16_606" x1="296.828" y1="453.894" x2="296.828" y2="433.469" gradientUnits="userSpaceOnUse">
<stop stop-color="#8D0599"/>
<stop offset="1" stop-color="#0BB6FF"/>
</linearGradient>
<linearGradient id="paint1_linear_16_606" x1="286.038" y1="445.415" x2="286.038" y2="2.99989" gradientUnits="userSpaceOnUse">
<stop stop-color="#8FFFF8"/>
<stop offset="1" stop-color="#8FFFF8" stop-opacity="0"/>
</linearGradient>
<radialGradient id="paint2_diamond_16_606" cx="0" cy="0" r="1" gradientUnits="userSpaceOnUse" gradientTransform="translate(294.656 442.415) rotate(-134.659) scale(411.761 457.628)">
<stop stop-color="#000AEF"/>
<stop offset="1" stop-color="#000AFF" stop-opacity="0"/>
</radialGradient>
<radialGradient id="paint3_radial_16_606" cx="0" cy="0" r="1" gradientUnits="userSpaceOnUse" gradientTransform="translate(469.473 212.055) rotate(90) scale(85.1688)">
<stop stop-color="#00FFD1"/>
<stop offset="1" stop-color="#FF37D3" stop-opacity="0"/>
</radialGradient>
<radialGradient id="paint4_radial_16_606" cx="0" cy="0" r="1" gradientUnits="userSpaceOnUse" gradientTransform="translate(500.138 94.1104) rotate(90) scale(89.408)">
<stop stop-color="#00FFD1"/>
<stop offset="1" stop-color="#FF37D3" stop-opacity="0"/>
</radialGradient>
<radialGradient id="paint5_radial_16_606" cx="0" cy="0" r="1" gradientUnits="userSpaceOnUse" gradientTransform="translate(123.06 66.0234) rotate(90) scale(92.1056)">
<stop stop-color="#00FFD1"/>
<stop offset="1" stop-color="#FF37D3" stop-opacity="0"/>
</radialGradient>
<radialGradient id="paint6_radial_16_606" cx="0" cy="0" r="1" gradientUnits="userSpaceOnUse" gradientTransform="translate(346.757 174.757) rotate(90) scale(80.5443)">
<stop stop-color="#00FFD1"/>
<stop offset="1" stop-color="#FF37D3" stop-opacity="0"/>
</radialGradient>
<radialGradient id="paint7_radial_16_606" cx="0" cy="0" r="1" gradientUnits="userSpaceOnUse" gradientTransform="translate(252.757 283.023) rotate(90) scale(101.355)">
<stop stop-color="#00FFD1"/>
<stop offset="1" stop-color="#FF37D3" stop-opacity="0"/>
</radialGradient>
<radialGradient id="paint8_radial_16_606" cx="0" cy="0" r="1" gradientUnits="userSpaceOnUse" gradientTransform="translate(150.757 221.522) rotate(89.7149) scale(77.4622)">
<stop stop-color="#00FFD1"/>
<stop offset="1" stop-color="#FF37D3" stop-opacity="0"/>
</radialGradient>
<radialGradient id="paint9_radial_16_606" cx="0" cy="0" r="1" gradientUnits="userSpaceOnUse" gradientTransform="translate(314.801 69.3316) rotate(90) scale(84.7834)">
<stop stop-color="#00FFD1"/>
<stop offset="1" stop-color="#FF37D3" stop-opacity="0"/>
</radialGradient>
<radialGradient id="paint10_radial_16_606" cx="0" cy="0" r="1" gradientUnits="userSpaceOnUse" gradientTransform="translate(332.893 355.18) rotate(90) scale(94.4179)">
<stop stop-color="#00FFD1"/>
<stop offset="1" stop-color="#FF37D3" stop-opacity="0"/>
</radialGradient>
</defs>
</svg>
