<svg width="36" height="36" viewBox="0 0 36 36" fill="none" xmlns="http://www.w3.org/2000/svg">
<g clip-path="url(#clip0_301_1741)">
<path d="M35.3461 27.0809C35.1412 25.5441 34.8851 24.0585 34.6802 22.5218C34.4594 20.5085 34.1345 18.508 33.7069 16.5283C33.0922 12.2765 33.5532 4.74628 30.0186 1.72394C28.072 0.0847024 25.357 0.340833 22.8982 0.289607C19.6709 0.238381 16.3924 0.135929 13.0627 0.0847025C8.75974 0.0334764 3.0224 -0.837369 1.48562 4.3877C-0.153619 10.0738 0.819678 17.4504 1.33194 23.1877C1.79298 28.2591 1.33194 34.816 7.53031 35.482C15.3167 36.4041 23.4104 35.943 31.0943 35.2771C31.5423 35.2815 31.9813 35.1523 32.3555 34.9059C32.7296 34.6595 33.0217 34.3072 33.1946 33.894C35.09 32.8182 35.6535 29.7447 35.3461 27.0809Z" fill="#FDB30B"/>
<path d="M23.6651 27.8501C22.5893 21.037 21.8721 14.2239 21.3087 7.35962C21.155 5.46425 18.901 4.33727 17.4667 5.77161C15.1798 8.02767 13.4747 10.8051 12.4978 13.8653C11.5245 16.6828 15.8787 17.8098 16.9032 15.0948C17.0569 14.6337 17.2106 14.1727 17.4155 13.7117C17.9277 18.8343 18.5424 23.9057 19.3621 28.9771C19.7207 31.9482 24.0749 30.7188 23.6651 27.8501Z" fill="white"/>
</g>
<defs>
<clipPath id="clip0_301_1741">
<rect width="34.8502" height="36" fill="white" transform="translate(0.574921)"/>
</clipPath>
</defs>
</svg>
