<svg width="36" height="36" viewBox="0 0 36 36" fill="none" xmlns="http://www.w3.org/2000/svg">
<g clip-path="url(#clip0_301_6174)">
<path d="M35.337 27.0809C35.1321 25.5441 34.876 24.0585 34.6711 22.5218C34.4502 20.5085 34.1254 18.508 33.6978 16.5283C33.083 12.2765 33.5441 4.74628 30.0095 1.72394C28.0629 0.0847024 25.3479 0.340833 22.889 0.289607C19.6618 0.238381 16.3833 0.135929 13.0536 0.0847025C8.75061 0.0334764 3.01328 -0.837369 1.47649 4.3877C-0.162744 10.0738 0.810553 17.4504 1.32282 23.1877C1.78385 28.2591 1.32281 34.816 7.52118 35.482C15.3076 36.4041 23.4013 35.943 31.0852 35.2771C31.5331 35.2815 31.9722 35.1523 32.3463 34.9059C32.7204 34.6595 33.0126 34.3072 33.1855 33.894C35.0809 32.8182 35.6956 29.7447 35.337 27.0809Z" fill="#EF86B0"/>
<path d="M25.8601 23.7C25.7064 19.9093 22.889 18.1676 19.713 17.3479C21.9669 14.9915 24.016 12.2253 22.3767 9.51034C19.5593 4.95122 14.5904 8.28092 10.7996 8.12724C7.82851 8.07601 7.82851 12.5839 10.7996 12.6864C12.3364 12.7376 16.7931 10.8935 17.7664 11.5594C18.6885 12.2253 13.822 16.8357 13.156 17.5529C11.8754 18.9872 12.695 21.4973 14.744 21.3948C16.4857 21.3948 20.1228 21.0875 21.0961 22.9828C20.8912 23.9561 20.6351 24.9294 20.4301 25.9539C19.5825 26.7622 18.5118 27.2976 17.3566 27.4907C15.9222 27.7981 14.3342 27.6956 12.8999 27.6956C9.92878 27.6956 9.92878 32.2548 12.8999 32.2548C18.0738 32.2035 26.1163 30.718 25.8601 23.7Z" fill="white"/>
</g>
<defs>
<clipPath id="clip0_301_6174">
<rect width="34.8684" height="36" fill="white" transform="translate(0.565796)"/>
</clipPath>
</defs>
</svg>
