<svg width="36" height="36" viewBox="0 0 36 36" fill="none" xmlns="http://www.w3.org/2000/svg">
<g clip-path="url(#clip0_301_1720)">
<path d="M35.3327 27.0809C35.1278 25.5441 34.8716 24.0585 34.6667 22.5218C34.4459 20.5085 34.121 18.508 33.6934 16.5283C33.0787 12.2765 33.5397 4.74628 30.0051 1.72394C28.0585 0.0847024 25.3436 0.340833 22.8847 0.289607C19.6574 0.238381 16.379 0.135929 13.0493 0.0847025C8.74628 0.0334764 3.00895 -0.837369 1.47216 4.3877C-0.167077 10.0738 0.80622 17.4504 1.31848 23.1877C1.77952 28.2591 1.31848 34.816 7.51685 35.482C15.3032 36.4041 23.397 35.943 31.0809 35.2771C31.5288 35.2815 31.9679 35.1523 32.342 34.9059C32.7161 34.6595 33.0083 34.3072 33.1812 33.894C35.179 32.8182 35.6913 29.7447 35.3327 27.0809Z" fill="#74A2D6"/>
<path d="M25.7021 24.3659C24.1141 24.6733 22.4749 25.0319 20.8869 25.3392C23.2945 20.4215 24.4215 14.6329 21.6553 9.71524C19.094 5.15611 11.9223 4.43894 10.3855 10.1763C9.61713 12.9937 14.0226 14.1719 14.791 11.4057C15.6106 8.38336 18.2743 13.1474 18.4793 13.8133C18.8895 15.6587 18.8367 17.577 18.3256 19.397C17.6596 22.3681 16.1228 24.9294 14.3812 27.3883C13.1517 29.13 15.1496 31.0765 16.9425 30.718C20.2722 30.052 23.6019 29.3349 26.9316 28.6689C29.8002 28.1567 28.5708 23.7512 25.7021 24.3659Z" fill="white"/>
</g>
<defs>
<clipPath id="clip0_301_1720">
<rect width="34.8771" height="36" fill="white" transform="translate(0.561462)"/>
</clipPath>
</defs>
</svg>
