<svg width="20" height="20" viewBox="0 0 20 20"  xmlns="http://www.w3.org/2000/svg">
<path  d="M4.74763 3.2025L4.75 3.17272V3.14286C4.75 2.54128 4.90925 1.89607 5.19583 1.42629C5.47514 0.968419 5.81928 0.75 6.22222 0.75C6.79679 0.75 7.37473 1.15757 7.85396 1.97025C8.32341 2.76634 8.58333 3.77778 8.58333 4.57143C8.58333 5.17301 8.42408 5.81821 8.13751 6.28799C7.85819 6.74587 7.51405 6.96428 7.11111 6.96428C6.44162 6.96428 5.83192 6.53031 5.36826 5.74404C4.90584 4.95986 4.6864 3.97002 4.74763 3.2025ZM15.1019 3.28571C15.1019 3.99964 14.8464 4.97399 14.3758 5.75629C13.896 6.55409 13.3176 6.96428 12.7407 6.96428C12.3378 6.96428 11.9937 6.74587 11.7143 6.28799C11.4278 5.81821 11.2685 5.17301 11.2685 4.57143C11.2685 3.85751 11.524 2.88315 11.9946 2.10086C12.4744 1.30305 13.0528 0.892857 13.6296 0.892857C14.0326 0.892857 14.3767 1.11128 14.656 1.56915C14.9426 2.03893 15.1019 2.68413 15.1019 3.28571ZM15.5648 10.7143C15.5648 9.94135 15.8501 8.97591 16.3493 8.21499C16.8555 7.44349 17.4702 7.03571 18.0741 7.03571C18.3624 7.03571 18.6347 7.18329 18.8646 7.5158C19.1006 7.85718 19.25 8.34679 19.25 8.85714C19.25 9.63008 18.9647 10.5955 18.4655 11.3564C17.9593 12.1279 17.3447 12.5357 16.7407 12.5357C16.3588 12.5357 16.1002 12.3698 15.9058 12.0721C15.6923 11.7452 15.5648 11.2572 15.5648 10.7143ZM1.92593 7.03571C2.44644 7.03571 3.06413 7.43107 3.60123 8.22414C4.1236 8.99544 4.43519 9.95858 4.43519 10.7143C4.43519 11.2572 4.30769 11.7452 4.09424 12.0721C3.89983 12.3698 3.64124 12.5357 3.25926 12.5357C2.73875 12.5357 2.12105 12.1404 1.58395 11.3473C1.06158 10.576 0.75 9.61285 0.75 8.85714C0.75 8.31426 0.877499 7.82623 1.09095 7.49933C1.28535 7.2016 1.54394 7.03571 1.92593 7.03571ZM3.71296 18.1429C3.71296 16.8375 4.57669 15.0815 5.89293 13.6065C6.53756 12.8841 7.25898 12.2664 7.97543 11.8341C8.69927 11.3974 9.36953 11.1786 9.92593 11.1786C10.4823 11.1786 11.1526 11.3974 11.8764 11.8341C12.5929 12.2664 13.3143 12.8841 13.9589 13.6065C15.2752 15.0815 16.1389 16.8375 16.1389 18.1429C16.1389 18.4276 16.0794 18.6056 16.0131 18.7201C15.9473 18.8335 15.8506 18.9268 15.7095 19.0053C15.4003 19.1773 14.9301 19.25 14.3704 19.25C13.719 19.25 13.1057 19.0228 12.3685 18.7312C12.3373 18.7188 12.3059 18.7064 12.2741 18.6938C11.6039 18.4278 10.7957 18.1071 9.92593 18.1071C8.98944 18.1071 8.14891 18.4242 7.43556 18.6932C7.4058 18.7045 7.37627 18.7156 7.34697 18.7266C6.57739 19.0162 5.91967 19.25 5.18519 19.25C4.66105 19.25 4.28597 19.1514 4.06026 18.9931C3.88165 18.8678 3.71296 18.6498 3.71296 18.1429Z" stroke="current" stroke-width="1.5"/>
</svg>
