<svg width="17" height="20" viewBox="0 0 17 20" fill="" xmlns="http://www.w3.org/2000/svg">
<path d="M13.754 12C14.0494 12 14.342 12.0582 14.6149 12.1713C14.8878 12.2844 15.1358 12.4501 15.3446 12.6591C15.5535 12.868 15.7191 13.1161 15.8321 13.389C15.945 13.662 16.0031 13.9546 16.003 14.25V14.825C16.003 15.719 15.683 16.584 15.102 17.263C13.532 19.096 11.145 20.001 7.99999 20.001C4.85399 20.001 2.46799 19.096 0.901991 17.261C0.322238 16.5825 0.00347677 15.7195 0.00299072 14.827V14.249C0.00299069 13.9536 0.0611962 13.661 0.174282 13.3881C0.287367 13.1152 0.453116 12.8672 0.662061 12.6584C0.871006 12.4495 1.11905 12.2839 1.39203 12.1709C1.66501 12.0579 1.95756 11.9999 2.25299 12H13.754ZM13.754 13.5H2.25199C2.15355 13.5 2.05607 13.5194 1.96513 13.5571C1.87419 13.5948 1.79158 13.6501 1.72201 13.7197C1.65245 13.7894 1.5973 13.8721 1.55972 13.9631C1.52214 14.0541 1.50286 14.1516 1.50299 14.25V14.827C1.50299 15.362 1.69499 15.88 2.04299 16.287C3.29599 17.756 5.26199 18.501 7.99999 18.501C10.738 18.501 12.706 17.756 13.962 16.288C14.3106 15.8803 14.5022 15.3615 14.502 14.825V14.249C14.502 14.0505 14.4232 13.8602 14.283 13.7197C14.1427 13.5793 13.9525 13.5003 13.754 13.5ZM7.99999 0.00500488C8.6566 0.00500487 9.30678 0.134333 9.91341 0.385607C10.52 0.636881 11.0712 1.00518 11.5355 1.46947C11.9998 1.93376 12.3681 2.48496 12.6194 3.09159C12.8707 3.69822 13 4.3484 13 5.005C13 5.66161 12.8707 6.31179 12.6194 6.91842C12.3681 7.52505 11.9998 8.07625 11.5355 8.54054C11.0712 9.00483 10.52 9.37313 9.91341 9.6244C9.30678 9.87568 8.6566 10.005 7.99999 10.005C6.67391 10.005 5.40214 9.47822 4.46446 8.54054C3.52678 7.60286 2.99999 6.33109 2.99999 5.005C2.99999 3.67892 3.52678 2.40715 4.46446 1.46947C5.40214 0.531789 6.67391 0.00500488 7.99999 0.00500488ZM7.99999 1.505C7.54036 1.505 7.08524 1.59554 6.6606 1.77143C6.23596 1.94732 5.85012 2.20513 5.52512 2.53013C5.20011 2.85514 4.9423 3.24097 4.76641 3.66561C4.59052 4.09025 4.49999 4.54538 4.49999 5.005C4.49999 5.46463 4.59052 5.91976 4.76641 6.3444C4.9423 6.76904 5.20011 7.15487 5.52512 7.47988C5.85012 7.80488 6.23596 8.06269 6.6606 8.23858C7.08524 8.41448 7.54036 8.505 7.99999 8.505C8.92825 8.505 9.81849 8.13626 10.4749 7.47988C11.1312 6.8235 11.5 5.93326 11.5 5.005C11.5 4.07675 11.1312 3.18651 10.4749 2.53013C9.81849 1.87375 8.92825 1.505 7.99999 1.505Z" fill="current"/>
</svg>
