<svg width="20" height="21" viewBox="0 0 20 21" fill="none" xmlns="http://www.w3.org/2000/svg">
<path d="M3.5 3.00006V5.00006H2C1.60218 5.00006 1.22064 5.15809 0.93934 5.4394C0.658035 5.7207 0.5 6.10223 0.5 6.50006V16.0001C0.5 17.0609 0.921427 18.0783 1.67157 18.8285C2.42172 19.5786 3.43913 20.0001 4.5 20.0001H8.668C8.55716 19.7656 8.49967 19.5094 8.49967 19.2501C8.49967 18.9907 8.55716 18.7345 8.668 18.5001H4.5C4.1717 18.5001 3.84661 18.4354 3.54329 18.3098C3.23998 18.1841 2.96438 18 2.73223 17.7678C2.50009 17.5357 2.31594 17.2601 2.1903 16.9568C2.06466 16.6535 2 16.3284 2 16.0001V6.50006H9.51V9.33206C9.97605 9.1127 10.4849 8.99931 11 9.00006H11.01V6.50006H15V12.0251L16.5 10.5251V6.50006C16.5 6.10223 16.342 5.7207 16.0607 5.4394C15.7794 5.15809 15.3978 5.00006 15 5.00006H13.5V3.00006C13.5 2.42093 13.3324 1.85419 13.0173 1.36825C12.7023 0.882299 12.2534 0.497917 11.7247 0.261497C11.196 0.0250778 10.6103 -0.053272 10.038 0.0359053C9.46582 0.125083 8.93165 0.377975 8.5 0.764056C8.06835 0.377975 7.53418 0.125083 6.96196 0.0359053C6.38975 -0.053272 5.80395 0.0250778 5.27529 0.261497C4.74662 0.497917 4.29768 0.882299 3.98266 1.36825C3.66765 1.85419 3.50001 2.42093 3.5 3.00006ZM8 3.00006V5.00006H5V3.00006C5 2.60223 5.15804 2.2207 5.43934 1.9394C5.72064 1.65809 6.10218 1.50006 6.5 1.50006C6.89782 1.50006 7.27936 1.65809 7.56066 1.9394C7.84196 2.2207 8 2.60223 8 3.00006ZM12 5.00006H9.5V3.00006C9.5 2.66606 9.445 2.34406 9.344 2.04406C9.54076 1.8061 9.80615 1.63466 10.104 1.55314C10.4018 1.47162 10.7175 1.48399 11.008 1.58856C11.2985 1.69312 11.5497 1.8848 11.7272 2.13742C11.9048 2.39004 12 2.69129 12 3.00006V5.00006ZM11 15.0001C11.663 15.0001 12.2989 14.7367 12.7678 14.2678C13.2366 13.799 13.5 13.1631 13.5 12.5001C13.5 11.837 13.2366 11.2011 12.7678 10.7323C12.2989 10.2634 11.663 10.0001 11 10.0001C10.337 10.0001 9.70107 10.2634 9.23223 10.7323C8.76339 11.2011 8.5 11.837 8.5 12.5001C8.5 13.1631 8.76339 13.799 9.23223 14.2678C9.70107 14.7367 10.337 15.0001 11 15.0001ZM11 11.5001C11.2652 11.5001 11.5196 11.6054 11.7071 11.7929C11.8946 11.9805 12 12.2348 12 12.5001C12 12.7653 11.8946 13.0196 11.7071 13.2072C11.5196 13.3947 11.2652 13.5001 11 13.5001C10.7348 13.5001 10.4804 13.3947 10.2929 13.2072C10.1054 13.0196 10 12.7653 10 12.5001C10 12.2348 10.1054 11.9805 10.2929 11.7929C10.4804 11.6054 10.7348 11.5001 11 11.5001ZM17 21.0001C17.663 21.0001 18.2989 20.7367 18.7678 20.2678C19.2366 19.799 19.5 19.1631 19.5 18.5001C19.5 17.837 19.2366 17.2011 18.7678 16.7323C18.2989 16.2634 17.663 16.0001 17 16.0001C16.337 16.0001 15.7011 16.2634 15.2322 16.7323C14.7634 17.2011 14.5 17.837 14.5 18.5001C14.5 19.1631 14.7634 19.799 15.2322 20.2678C15.7011 20.7367 16.337 21.0001 17 21.0001ZM17 17.5001C17.2652 17.5001 17.5196 17.6054 17.7071 17.7929C17.8946 17.9805 18 18.2348 18 18.5001C18 18.7653 17.8946 19.0196 17.7071 19.2072C17.5196 19.3947 17.2652 19.5001 17 19.5001C16.7348 19.5001 16.4804 19.3947 16.2929 19.2072C16.1054 19.0196 16 18.7653 16 18.5001C16 18.2348 16.1054 17.9805 16.2929 17.7929C16.4804 17.6054 16.7348 17.5001 17 17.5001ZM18.28 12.2801C18.3537 12.2114 18.4128 12.1286 18.4538 12.0366C18.4948 11.9446 18.5168 11.8453 18.5186 11.7446C18.5204 11.6439 18.5018 11.5438 18.4641 11.4505C18.4264 11.3571 18.3703 11.2722 18.299 11.201C18.2278 11.1298 18.143 11.0737 18.0496 11.0359C17.9562 10.9982 17.8562 10.9797 17.7555 10.9815C17.6548 10.9832 17.5555 11.0053 17.4635 11.0463C17.3715 11.0873 17.2887 11.1464 17.22 11.2201L9.72 18.7201C9.64631 18.7887 9.58721 18.8715 9.54622 18.9635C9.50523 19.0555 9.48318 19.1548 9.48141 19.2555C9.47963 19.3562 9.49816 19.4563 9.53588 19.5497C9.5736 19.643 9.62974 19.7279 9.70096 19.7991C9.77218 19.8703 9.85701 19.9265 9.9504 19.9642C10.0438 20.0019 10.1438 20.0204 10.2445 20.0186C10.3452 20.0169 10.4445 19.9948 10.5365 19.9538C10.6285 19.9128 10.7113 19.8537 10.78 19.7801L18.28 12.2801Z" fill="#FEFEFE"/>
</svg>
