{
  "accessors": [
    {
      "bufferView": 0,
      "componentType": 5125,
      "count": 8112,
      "type": "SCALAR"
    },
    {
      "bufferView": 1,
      "componentType": 5126,
      "count": 2416,
      "max": [
        -160.381195068359,
        39.4728240966797,
        33.5113258361816
      ],
      "min": [
        -242.822143554688,
        -42.8177223205566,
        -60.3445053100586
      ],
      "type": "VEC3"
    },
    {
      "bufferView": 2,
      "componentType": 5126,
      "count": 2416,
      "type": "VEC3"
    },
    {
      "bufferView": 3,
      "componentType": 5126,
      "count": 2416,
      "type": "VEC2"
    },
    {
      "bufferView": 4,
      "componentType": 5125,
      "count": 240,
      "type": "SCALAR"
    },
    {
      "bufferView": 5,
      "componentType": 5126,
      "count": 47,
      "max": [
        14.6252269744873,
        12.1903839111328,
        12.8928985595703
      ],
      "min": [
        -14.157021522522,
        -12.1901779174805,
        -11.7090530395508
      ],
      "type": "VEC3"
    },
    {
      "bufferView": 6,
      "componentType": 5126,
      "count": 47,
      "type": "VEC3"
    },
    {
      "bufferView": 7,
      "componentType": 5126,
      "count": 47,
      "type": "VEC2"
    },
    {
      "bufferView": 8,
      "componentType": 5125,
      "count": 1080,
      "type": "SCALAR"
    },
    {
      "bufferView": 9,
      "componentType": 5126,
      "count": 191,
      "max": [
        28.8943347930908,
        29.9516181945801,
        40.1628494262695
      ],
      "min": [
        -28.388801574707,
        -29.9516181945801,
        -20.6389598846436
      ],
      "type": "VEC3"
    },
    {
      "bufferView": 10,
      "componentType": 5126,
      "count": 191,
      "type": "VEC3"
    },
    {
      "bufferView": 11,
      "componentType": 5126,
      "count": 191,
      "type": "VEC2"
    },
    {
      "bufferView": 12,
      "componentType": 5125,
      "count": 3240,
      "type": "SCALAR"
    },
    {
      "bufferView": 13,
      "componentType": 5126,
      "count": 578,
      "max": [
        14.6787815093994,
        14.6770267486572,
        0.0
      ],
      "min": [
        -18.2063961029053,
        -14.6803207397461,
        -53.216625213623
      ],
      "type": "VEC3"
    },
    {
      "bufferView": 14,
      "componentType": 5126,
      "count": 578,
      "type": "VEC3"
    },
    {
      "bufferView": 15,
      "componentType": 5126,
      "count": 578,
      "type": "VEC2"
    },
    {
      "bufferView": 16,
      "componentType": 5125,
      "count": 336,
      "type": "SCALAR"
    },
    {
      "bufferView": 17,
      "componentType": 5126,
      "count": 64,
      "max": [
        20.5693244934082,
        17.6154632568359,
        43.8635864257812
      ],
      "min": [
        -3.42672157287598,
        -7.12717819213867,
        -2.69941711425781
      ],
      "type": "VEC3"
    },
    {
      "bufferView": 18,
      "componentType": 5126,
      "count": 64,
      "type": "VEC3"
    },
    {
      "bufferView": 19,
      "componentType": 5126,
      "count": 64,
      "type": "VEC2"
    },
    {
      "bufferView": 20,
      "componentType": 5125,
      "count": 1728,
      "type": "SCALAR"
    },
    {
      "bufferView": 21,
      "componentType": 5126,
      "count": 633,
      "max": [
        14.9504737854004,
        18.894645690918,
        8.38921356201172
      ],
      "min": [
        -13.7733116149902,
        -17.1790008544922,
        4.76837158203125e-06
      ],
      "type": "VEC3"
    },
    {
      "bufferView": 22,
      "componentType": 5126,
      "count": 633,
      "type": "VEC3"
    },
    {
      "bufferView": 23,
      "componentType": 5126,
      "count": 633,
      "type": "VEC2"
    },
    {
      "bufferView": 24,
      "componentType": 5125,
      "count": 1728,
      "type": "SCALAR"
    },
    {
      "bufferView": 25,
      "componentType": 5126,
      "count": 634,
      "max": [
        14.9504718780518,
        18.894645690918,
        8.38921546936035
      ],
      "min": [
        -13.7733116149902,
        -17.1790008544922,
        5.7220458984375e-06
      ],
      "type": "VEC3"
    },
    {
      "bufferView": 26,
      "componentType": 5126,
      "count": 634,
      "type": "VEC3"
    },
    {
      "bufferView": 27,
      "componentType": 5126,
      "count": 634,
      "type": "VEC2"
    },
    {
      "bufferView": 28,
      "componentType": 5125,
      "count": 3072,
      "type": "SCALAR"
    },
    {
      "bufferView": 29,
      "componentType": 5126,
      "count": 827,
      "max": [
        -170.747802734375,
        23.0521049499512,
        -9.33578491210938
      ],
      "min": [
        -186.642883300781,
        -23.1148548126221,
        -36.165168762207
      ],
      "type": "VEC3"
    },
    {
      "bufferView": 30,
      "componentType": 5126,
      "count": 827,
      "type": "VEC3"
    },
    {
      "bufferView": 31,
      "componentType": 5126,
      "count": 827,
      "type": "VEC2"
    },
    {
      "bufferView": 32,
      "componentType": 5125,
      "count": 5760,
      "type": "SCALAR"
    },
    {
      "bufferView": 33,
      "componentType": 5126,
      "count": 1058,
      "max": [
        4.50725364685059,
        30.0386505126953,
        10.1104888916016
      ],
      "min": [
        -4.50734901428223,
        -5.30445384979248,
        -10.1105270385742
      ],
      "type": "VEC3"
    },
    {
      "bufferView": 34,
      "componentType": 5126,
      "count": 1058,
      "type": "VEC3"
    },
    {
      "bufferView": 35,
      "componentType": 5126,
      "count": 1058,
      "type": "VEC2"
    },
    {
      "bufferView": 36,
      "componentType": 5125,
      "count": 336,
      "type": "SCALAR"
    },
    {
      "bufferView": 37,
      "componentType": 5126,
      "count": 64,
      "max": [
        20.5693264007568,
        17.61545753479,
        43.8635864257812
      ],
      "min": [
        -3.42672300338745,
        -7.12717437744141,
        -2.69941711425781
      ],
      "type": "VEC3"
    },
    {
      "bufferView": 38,
      "componentType": 5126,
      "count": 64,
      "type": "VEC3"
    },
    {
      "bufferView": 39,
      "componentType": 5126,
      "count": 64,
      "type": "VEC2"
    },
    {
      "bufferView": 40,
      "componentType": 5125,
      "count": 3240,
      "type": "SCALAR"
    },
    {
      "bufferView": 41,
      "componentType": 5126,
      "count": 578,
      "max": [
        14.6787796020508,
        14.6770267486572,
        0.0
      ],
      "min": [
        -18.2063980102539,
        -14.6803207397461,
        -53.216625213623
      ],
      "type": "VEC3"
    },
    {
      "bufferView": 42,
      "componentType": 5126,
      "count": 578,
      "type": "VEC3"
    },
    {
      "bufferView": 43,
      "componentType": 5126,
      "count": 578,
      "type": "VEC2"
    }
  ],
  "asset": {
    "generator": "Adobe Substance 3D Painter 7.4.0",
    "version": "2.0"
  },
  "bufferViews": [
    {
      "buffer": 0,
      "byteLength": 32448,
      "target": 34963
    },
    {
      "buffer": 0,
      "byteLength": 28992,
      "byteOffset": 32448,
      "target": 34962
    },
    {
      "buffer": 0,
      "byteLength": 28992,
      "byteOffset": 61440,
      "target": 34962
    },
    {
      "buffer": 0,
      "byteLength": 19328,
      "byteOffset": 90432,
      "target": 34962
    },
    {
      "buffer": 0,
      "byteLength": 960,
      "byteOffset": 109760,
      "target": 34963
    },
    {
      "buffer": 0,
      "byteLength": 564,
      "byteOffset": 110720,
      "target": 34962
    },
    {
      "buffer": 0,
      "byteLength": 564,
      "byteOffset": 111284,
      "target": 34962
    },
    {
      "buffer": 0,
      "byteLength": 376,
      "byteOffset": 111848,
      "target": 34962
    },
    {
      "buffer": 0,
      "byteLength": 4320,
      "byteOffset": 112224,
      "target": 34963
    },
    {
      "buffer": 0,
      "byteLength": 2292,
      "byteOffset": 116544,
      "target": 34962
    },
    {
      "buffer": 0,
      "byteLength": 2292,
      "byteOffset": 118836,
      "target": 34962
    },
    {
      "buffer": 0,
      "byteLength": 1528,
      "byteOffset": 121128,
      "target": 34962
    },
    {
      "buffer": 0,
      "byteLength": 12960,
      "byteOffset": 122656,
      "target": 34963
    },
    {
      "buffer": 0,
      "byteLength": 6936,
      "byteOffset": 135616,
      "target": 34962
    },
    {
      "buffer": 0,
      "byteLength": 6936,
      "byteOffset": 142552,
      "target": 34962
    },
    {
      "buffer": 0,
      "byteLength": 4624,
      "byteOffset": 149488,
      "target": 34962
    },
    {
      "buffer": 0,
      "byteLength": 1344,
      "byteOffset": 154112,
      "target": 34963
    },
    {
      "buffer": 0,
      "byteLength": 768,
      "byteOffset": 155456,
      "target": 34962
    },
    {
      "buffer": 0,
      "byteLength": 768,
      "byteOffset": 156224,
      "target": 34962
    },
    {
      "buffer": 0,
      "byteLength": 512,
      "byteOffset": 156992,
      "target": 34962
    },
    {
      "buffer": 0,
      "byteLength": 6912,
      "byteOffset": 157504,
      "target": 34963
    },
    {
      "buffer": 0,
      "byteLength": 7596,
      "byteOffset": 164416,
      "target": 34962
    },
    {
      "buffer": 0,
      "byteLength": 7596,
      "byteOffset": 172012,
      "target": 34962
    },
    {
      "buffer": 0,
      "byteLength": 5064,
      "byteOffset": 179608,
      "target": 34962
    },
    {
      "buffer": 0,
      "byteLength": 6912,
      "byteOffset": 184672,
      "target": 34963
    },
    {
      "buffer": 0,
      "byteLength": 7608,
      "byteOffset": 191584,
      "target": 34962
    },
    {
      "buffer": 0,
      "byteLength": 7608,
      "byteOffset": 199192,
      "target": 34962
    },
    {
      "buffer": 0,
      "byteLength": 5072,
      "byteOffset": 206800,
      "target": 34962
    },
    {
      "buffer": 0,
      "byteLength": 12288,
      "byteOffset": 211872,
      "target": 34963
    },
    {
      "buffer": 0,
      "byteLength": 9924,
      "byteOffset": 224160,
      "target": 34962
    },
    {
      "buffer": 0,
      "byteLength": 9924,
      "byteOffset": 234084,
      "target": 34962
    },
    {
      "buffer": 0,
      "byteLength": 6616,
      "byteOffset": 244008,
      "target": 34962
    },
    {
      "buffer": 0,
      "byteLength": 23040,
      "byteOffset": 250624,
      "target": 34963
    },
    {
      "buffer": 0,
      "byteLength": 12696,
      "byteOffset": 273664,
      "target": 34962
    },
    {
      "buffer": 0,
      "byteLength": 12696,
      "byteOffset": 286360,
      "target": 34962
    },
    {
      "buffer": 0,
      "byteLength": 8464,
      "byteOffset": 299056,
      "target": 34962
    },
    {
      "buffer": 0,
      "byteLength": 1344,
      "byteOffset": 307520,
      "target": 34963
    },
    {
      "buffer": 0,
      "byteLength": 768,
      "byteOffset": 308864,
      "target": 34962
    },
    {
      "buffer": 0,
      "byteLength": 768,
      "byteOffset": 309632,
      "target": 34962
    },
    {
      "buffer": 0,
      "byteLength": 512,
      "byteOffset": 310400,
      "target": 34962
    },
    {
      "buffer": 0,
      "byteLength": 12960,
      "byteOffset": 310912,
      "target": 34963
    },
    {
      "buffer": 0,
      "byteLength": 6936,
      "byteOffset": 323872,
      "target": 34962
    },
    {
      "buffer": 0,
      "byteLength": 6936,
      "byteOffset": 330808,
      "target": 34962
    },
    {
      "buffer": 0,
      "byteLength": 4624,
      "byteOffset": 337744,
      "target": 34962
    }
  ],
  "buffers": [
    {
      "byteLength": 342368,
      "uri": "panda subs file.bin"
    }
  ],
  "images": [
    {
      "uri": "kozi_baseColor.png"
    },
    {
      "uri": "kozi_occlusionRoughnessMetallic.png"
    },
    {
      "uri": "kozi_normal.png"
    },
    {
      "uri": "kozi_emissive.png"
    },
    {
      "uri": "qulogi_baseColor.png"
    },
    {
      "uri": "qulogi_occlusionRoughnessMetallic.png"
    },
    {
      "uri": "qulogi_normal.png"
    },
    {
      "uri": "qulogi_emissive.png"
    },
    {
      "uri": "tanasi_baseColor.png"
    },
    {
      "uri": "tanasi_occlusionRoughnessMetallic.png"
    },
    {
      "uri": "tanasi_normal.png"
    },
    {
      "uri": "tanasi_emissive.png"
    }
  ],
  "materials": [
    {
      "alphaMode": "OPAQUE",
      "emissiveFactor": [
        1.0,
        1.0,
        1.0
      ],
      "emissiveTexture": {
        "index": 3
      },
      "name": "kozi",
      "normalTexture": {
        "index": 2
      },
      "occlusionTexture": {
        "index": 1
      },
      "pbrMetallicRoughness": {
        "baseColorTexture": {
          "index": 0
        },
        "metallicRoughnessTexture": {
          "index": 1
        }
      }
    },
    {
      "alphaMode": "OPAQUE",
      "emissiveFactor": [
        1.0,
        1.0,
        1.0
      ],
      "emissiveTexture": {
        "index": 7
      },
      "name": "qulogi",
      "normalTexture": {
        "index": 6
      },
      "occlusionTexture": {
        "index": 5
      },
      "pbrMetallicRoughness": {
        "baseColorTexture": {
          "index": 4
        },
        "metallicRoughnessTexture": {
          "index": 5
        }
      }
    },
    {
      "alphaMode": "OPAQUE",
      "emissiveFactor": [
        1.0,
        1.0,
        1.0
      ],
      "emissiveTexture": {
        "index": 11
      },
      "name": "tanasi",
      "normalTexture": {
        "index": 10
      },
      "occlusionTexture": {
        "index": 9
      },
      "pbrMetallicRoughness": {
        "baseColorTexture": {
          "index": 8
        },
        "metallicRoughnessTexture": {
          "index": 9
        }
      }
    }
  ],
  "meshes": [
    {
      "name": "Sphere001",
      "primitives": [
        {
          "attributes": {
            "NORMAL": 2,
            "POSITION": 1,
            "TEXCOORD_0": 3
          },
          "indices": 0,
          "material": 2,
          "mode": 4
        }
      ]
    },
    {
      "name": "Sphere004",
      "primitives": [
        {
          "attributes": {
            "NORMAL": 6,
            "POSITION": 5,
            "TEXCOORD_0": 7
          },
          "indices": 4,
          "material": 1,
          "mode": 4
        }
      ]
    },
    {
      "name": "Sphere005",
      "primitives": [
        {
          "attributes": {
            "NORMAL": 10,
            "POSITION": 9,
            "TEXCOORD_0": 11
          },
          "indices": 8,
          "material": 2,
          "mode": 4
        }
      ]
    },
    {
      "name": "Cylinder001",
      "primitives": [
        {
          "attributes": {
            "NORMAL": 14,
            "POSITION": 13,
            "TEXCOORD_0": 15
          },
          "indices": 12,
          "material": 1,
          "mode": 4
        }
      ]
    },
    {
      "name": "Box004",
      "primitives": [
        {
          "attributes": {
            "NORMAL": 18,
            "POSITION": 17,
            "TEXCOORD_0": 19
          },
          "indices": 16,
          "material": 1,
          "mode": 4
        }
      ]
    },
    {
      "name": "Cylinder006",
      "primitives": [
        {
          "attributes": {
            "NORMAL": 22,
            "POSITION": 21,
            "TEXCOORD_0": 23
          },
          "indices": 20,
          "material": 1,
          "mode": 4
        }
      ]
    },
    {
      "name": "Cylinder007",
      "primitives": [
        {
          "attributes": {
            "NORMAL": 26,
            "POSITION": 25,
            "TEXCOORD_0": 27
          },
          "indices": 24,
          "material": 1,
          "mode": 4
        }
      ]
    },
    {
      "name": "Object001",
      "primitives": [
        {
          "attributes": {
            "NORMAL": 30,
            "POSITION": 29,
            "TEXCOORD_0": 31
          },
          "indices": 28,
          "material": 1,
          "mode": 4
        }
      ]
    },
    {
      "name": "Sphere037",
      "primitives": [
        {
          "attributes": {
            "NORMAL": 34,
            "POSITION": 33,
            "TEXCOORD_0": 35
          },
          "indices": 32,
          "material": 0,
          "mode": 4
        }
      ]
    },
    {
      "name": "Box005",
      "primitives": [
        {
          "attributes": {
            "NORMAL": 38,
            "POSITION": 37,
            "TEXCOORD_0": 39
          },
          "indices": 36,
          "material": 1,
          "mode": 4
        }
      ]
    },
    {
      "name": "Cylinder008",
      "primitives": [
        {
          "attributes": {
            "NORMAL": 42,
            "POSITION": 41,
            "TEXCOORD_0": 43
          },
          "indices": 40,
          "material": 1,
          "mode": 4
        }
      ]
    }
  ],
  "nodes": [
    {
      "children": [
        1,
        3,
        5,
        7,
        9,
        11,
        13,
        15,
        17,
        19,
        21
      ],
      "name": "RootNode"
    },
    {
      "children": [
        2
      ],
      "name": "Sphere001",
      "rotation": [
        0.5,
        -0.50000011920929,
        0.499999701976776,
        0.500000298023224
      ],
      "scale": [
        0.100000001490116,
        0.100000001490116,
        0.100000001490116
      ],
      "translation": [
        5.8953537940979,
        35.2849235534668,
        115.384468078613
      ]
    },
    {
      "mesh": 0,
      "name": "Sphere001"
    },
    {
      "children": [
        4
      ],
      "name": "Sphere004",
      "rotation": [
        -0.707106828689575,
        -4.21468513422951e-08,
        -4.21468584477225e-08,
        0.707106709480286
      ],
      "scale": [
        0.0696569010615349,
        0.0452789999544621,
        0.0464922003448009
      ],
      "translation": [
        6.0625901222229,
        35.3591156005859,
        99.2287216186523
      ]
    },
    {
      "mesh": 1,
      "name": "Sphere004"
    },
    {
      "children": [
        6
      ],
      "name": "Sphere005",
      "rotation": [
        -0.500000059604645,
        0.500000059604645,
        0.5,
        0.5
      ],
      "scale": [
        0.12123479694128,
        0.12123479694128,
        0.12123479694128
      ],
      "translation": [
        6.06634664535522,
        28.3517742156982,
        94.7266845703125
      ]
    },
    {
      "mesh": 2,
      "name": "Sphere005"
    },
    {
      "children": [
        8
      ],
      "name": "Cylinder001",
      "rotation": [
        0.70710688829422,
        -4.21468406841541e-08,
        4.21468548950088e-08,
        0.707106649875641
      ],
      "scale": [
        0.086167998611927,
        0.120119504630566,
        0.107340104877949
      ],
      "translation": [
        8.70805263519287,
        21.883056640625,
        95.1114044189453
      ]
    },
    {
      "mesh": 3,
      "name": "Cylinder001"
    },
    {
      "children": [
        10
      ],
      "name": "Box004",
      "rotation": [
        0.521333813667297,
        -0.477714419364929,
        -0.521333754062653,
        -0.477714449167252
      ],
      "scale": [
        0.100000001490116,
        0.100000008940697,
        0.100000008940697
      ],
      "translation": [
        10.6789283752441,
        27.7266654968262,
        95.9987106323242
      ]
    },
    {
      "mesh": 4,
      "name": "Box004"
    },
    {
      "children": [
        12
      ],
      "name": "Cylinder006",
      "rotation": [
        8.14603495769006e-08,
        -5.96046412226769e-08,
        4.85541477629383e-15,
        1.0
      ],
      "scale": [
        0.100000001490116,
        0.100000001490116,
        0.100000001490116
      ],
      "translation": [
        2.26133251190186,
        39.376335144043,
        93.9359436035156
      ]
    },
    {
      "mesh": 5,
      "name": "Cylinder006"
    },
    {
      "children": [
        14
      ],
      "name": "Cylinder007",
      "rotation": [
        1.0,
        -5.96046447753906e-08,
        5.96046376699633e-08,
        7.54979083694707e-08
      ],
      "scale": [
        -0.100000001490116,
        -0.100000001490116,
        -0.100000001490116
      ],
      "translation": [
        9.88688278198242,
        39.376335144043,
        93.9359436035156
      ]
    },
    {
      "mesh": 6,
      "name": "Cylinder007"
    },
    {
      "children": [
        16
      ],
      "name": "Object001",
      "rotation": [
        0.500000059604645,
        -0.500000059604645,
        0.49999988079071,
        0.50000011920929
      ],
      "scale": [
        0.100000001490116,
        0.100000001490116,
        0.100000001490116
      ],
      "translation": [
        6.09320545196533,
        35.2849235534668,
        115.441390991211
      ]
    },
    {
      "mesh": 7,
      "name": "Object001"
    },
    {
      "children": [
        18
      ],
      "name": "Sphere037",
      "rotation": [
        -0.475442826747894,
        0.475442737340927,
        0.523406386375427,
        0.523406267166138
      ],
      "scale": [
        0.0793779119849205,
        0.08940190076828,
        0.0464824996888638
      ],
      "translation": [
        7.20347166061401,
        37.4622955322266,
        97.8645324707031
      ]
    },
    {
      "mesh": 8,
      "name": "Sphere037"
    },
    {
      "children": [
        20
      ],
      "name": "Box005",
      "rotation": [
        0.477714538574219,
        -0.521333694458008,
        0.477714508771896,
        0.521333754062653
      ],
      "scale": [
        -0.100000001490116,
        -0.100000001490116,
        -0.100000001490116
      ],
      "translation": [
        1.37892770767212,
        27.7266654968262,
        95.9987106323242
      ]
    },
    {
      "mesh": 9,
      "name": "Box005"
    },
    {
      "children": [
        22
      ],
      "name": "Cylinder008",
      "rotation": [
        -0.707106649875641,
        -4.21468513422951e-08,
        -4.21468371314404e-08,
        0.70710688829422
      ],
      "scale": [
        -0.086167998611927,
        -0.120119504630566,
        -0.107340104877949
      ],
      "translation": [
        3.61434817314148,
        21.883056640625,
        95.1114044189453
      ]
    },
    {
      "mesh": 10,
      "name": "Cylinder008"
    }
  ],
  "samplers": [
    {
      "magFilter": 9729,
      "minFilter": 9985,
      "wrapS": 10497,
      "wrapT": 10497
    }
  ],
  "scene": 0,
  "scenes": [
    {
      "name": "Scene",
      "nodes": [
        0
      ]
    }
  ],
  "textures": [
    {
      "sampler": 0,
      "source": 0
    },
    {
      "sampler": 0,
      "source": 1
    },
    {
      "sampler": 0,
      "source": 2
    },
    {
      "sampler": 0,
      "source": 3
    },
    {
      "sampler": 0,
      "source": 4
    },
    {
      "sampler": 0,
      "source": 5
    },
    {
      "sampler": 0,
      "source": 6
    },
    {
      "sampler": 0,
      "source": 7
    },
    {
      "sampler": 0,
      "source": 8
    },
    {
      "sampler": 0,
      "source": 9
    },
    {
      "sampler": 0,
      "source": 10
    },
    {
      "sampler": 0,
      "source": 11
    }
  ]
}